G04 #@! TF.GenerationSoftware,KiCad,Pcbnew,(2017-07-13 revision e01eb2975)-makepkg*
G04 #@! TF.CreationDate,2017-08-29T12:18:45+02:00*
G04 #@! TF.ProjectId,panel,70616E656C2E6B696361645F70636200,rev?*
G04 #@! TF.SameCoordinates,Original
G04 #@! TF.FileFunction,Soldermask,Bot*
G04 #@! TF.FilePolarity,Negative*
%FSLAX46Y46*%
G04 Gerber Fmt 4.6, Leading zero omitted, Abs format (unit mm)*
G04 Created by KiCad (PCBNEW (2017-07-13 revision e01eb2975)-makepkg) date 08/29/17 12:18:45*
%MOMM*%
%LPD*%
G01*
G04 APERTURE LIST*
%ADD10C,0.150000*%
%ADD11C,0.100000*%
G04 APERTURE END LIST*
D10*
X184750000Y-357600000D02*
G75*
G03X185050000Y-357300000I0J300000D01*
G01*
X114750000Y-357600000D02*
G75*
G03X115050000Y-357300000I0J300000D01*
G01*
X44750000Y-357600000D02*
G75*
G03X45050000Y-357300000I0J300000D01*
G01*
X184750000Y-327600000D02*
G75*
G03X185050000Y-327300000I0J300000D01*
G01*
X114750000Y-327600000D02*
G75*
G03X115050000Y-327300000I0J300000D01*
G01*
X44750000Y-327600000D02*
G75*
G03X45050000Y-327300000I0J300000D01*
G01*
X184750000Y-297600000D02*
G75*
G03X185050000Y-297300000I0J300000D01*
G01*
X114750000Y-297600000D02*
G75*
G03X115050000Y-297300000I0J300000D01*
G01*
X44750000Y-297600000D02*
G75*
G03X45050000Y-297300000I0J300000D01*
G01*
X184750000Y-267600000D02*
G75*
G03X185050000Y-267300000I0J300000D01*
G01*
X114750000Y-267600000D02*
G75*
G03X115050000Y-267300000I0J300000D01*
G01*
X44750000Y-267600000D02*
G75*
G03X45050000Y-267300000I0J300000D01*
G01*
X184750000Y-237600000D02*
G75*
G03X185050000Y-237300000I0J300000D01*
G01*
X114750000Y-237600000D02*
G75*
G03X115050000Y-237300000I0J300000D01*
G01*
X44750000Y-237600000D02*
G75*
G03X45050000Y-237300000I0J300000D01*
G01*
X184750000Y-207600000D02*
G75*
G03X185050000Y-207300000I0J300000D01*
G01*
X114750000Y-207600000D02*
G75*
G03X115050000Y-207300000I0J300000D01*
G01*
X44750000Y-207600000D02*
G75*
G03X45050000Y-207300000I0J300000D01*
G01*
X184750000Y-177600000D02*
G75*
G03X185050000Y-177300000I0J300000D01*
G01*
X114750000Y-177600000D02*
G75*
G03X115050000Y-177300000I0J300000D01*
G01*
X44750000Y-177600000D02*
G75*
G03X45050000Y-177300000I0J300000D01*
G01*
X184750000Y-147600000D02*
G75*
G03X185050000Y-147300000I0J300000D01*
G01*
X114750000Y-147600000D02*
G75*
G03X115050000Y-147300000I0J300000D01*
G01*
X44750000Y-147600000D02*
G75*
G03X45050000Y-147300000I0J300000D01*
G01*
X184750000Y-117600000D02*
G75*
G03X185050000Y-117300000I0J300000D01*
G01*
X114750000Y-117600000D02*
G75*
G03X115050000Y-117300000I0J300000D01*
G01*
X44750000Y-117600000D02*
G75*
G03X45050000Y-117300000I0J300000D01*
G01*
X184750000Y-87600000D02*
G75*
G03X185050000Y-87300000I0J300000D01*
G01*
X114750000Y-87600000D02*
G75*
G03X115050000Y-87300000I0J300000D01*
G01*
X44750000Y-87600000D02*
G75*
G03X45050000Y-87300000I0J300000D01*
G01*
X184750000Y-57600000D02*
G75*
G03X185050000Y-57300000I0J300000D01*
G01*
X114750000Y-57600000D02*
G75*
G03X115050000Y-57300000I0J300000D01*
G01*
X44750000Y-57600000D02*
G75*
G03X45050000Y-57300000I0J300000D01*
G01*
X184750000Y-27600000D02*
G75*
G03X185050000Y-27300000I0J300000D01*
G01*
X114750000Y-27600000D02*
G75*
G03X115050000Y-27300000I0J300000D01*
G01*
X148975000Y-352600000D02*
X146975000Y-350600000D01*
X78975000Y-352600000D02*
X76975000Y-350600000D01*
X8975000Y-352600000D02*
X6975000Y-350600000D01*
X148975000Y-322600000D02*
X146975000Y-320600000D01*
X78975000Y-322600000D02*
X76975000Y-320600000D01*
X8975000Y-322600000D02*
X6975000Y-320600000D01*
X148975000Y-292600000D02*
X146975000Y-290600000D01*
X78975000Y-292600000D02*
X76975000Y-290600000D01*
X8975000Y-292600000D02*
X6975000Y-290600000D01*
X148975000Y-262600000D02*
X146975000Y-260600000D01*
X78975000Y-262600000D02*
X76975000Y-260600000D01*
X8975000Y-262600000D02*
X6975000Y-260600000D01*
X148975000Y-232600000D02*
X146975000Y-230600000D01*
X78975000Y-232600000D02*
X76975000Y-230600000D01*
X8975000Y-232600000D02*
X6975000Y-230600000D01*
X148975000Y-202600000D02*
X146975000Y-200600000D01*
X78975000Y-202600000D02*
X76975000Y-200600000D01*
X8975000Y-202600000D02*
X6975000Y-200600000D01*
X148975000Y-172600000D02*
X146975000Y-170600000D01*
X78975000Y-172600000D02*
X76975000Y-170600000D01*
X8975000Y-172600000D02*
X6975000Y-170600000D01*
X148975000Y-142600000D02*
X146975000Y-140600000D01*
X78975000Y-142600000D02*
X76975000Y-140600000D01*
X8975000Y-142600000D02*
X6975000Y-140600000D01*
X148975000Y-112600000D02*
X146975000Y-110600000D01*
X78975000Y-112600000D02*
X76975000Y-110600000D01*
X8975000Y-112600000D02*
X6975000Y-110600000D01*
X148975000Y-82600000D02*
X146975000Y-80600000D01*
X78975000Y-82600000D02*
X76975000Y-80600000D01*
X8975000Y-82600000D02*
X6975000Y-80600000D01*
X148975000Y-52600000D02*
X146975000Y-50600000D01*
X78975000Y-52600000D02*
X76975000Y-50600000D01*
X8975000Y-52600000D02*
X6975000Y-50600000D01*
X148975000Y-22600000D02*
X146975000Y-20600000D01*
X78975000Y-22600000D02*
X76975000Y-20600000D01*
X185050000Y-335900000D02*
G75*
G03X184750000Y-335600000I-300000J0D01*
G01*
X115050000Y-335900000D02*
G75*
G03X114750000Y-335600000I-300000J0D01*
G01*
X45050000Y-335900000D02*
G75*
G03X44750000Y-335600000I-300000J0D01*
G01*
X185050000Y-305900000D02*
G75*
G03X184750000Y-305600000I-300000J0D01*
G01*
X115050000Y-305900000D02*
G75*
G03X114750000Y-305600000I-300000J0D01*
G01*
X45050000Y-305900000D02*
G75*
G03X44750000Y-305600000I-300000J0D01*
G01*
X185050000Y-275900000D02*
G75*
G03X184750000Y-275600000I-300000J0D01*
G01*
X115050000Y-275900000D02*
G75*
G03X114750000Y-275600000I-300000J0D01*
G01*
X45050000Y-275900000D02*
G75*
G03X44750000Y-275600000I-300000J0D01*
G01*
X185050000Y-245900000D02*
G75*
G03X184750000Y-245600000I-300000J0D01*
G01*
X115050000Y-245900000D02*
G75*
G03X114750000Y-245600000I-300000J0D01*
G01*
X45050000Y-245900000D02*
G75*
G03X44750000Y-245600000I-300000J0D01*
G01*
X185050000Y-215900000D02*
G75*
G03X184750000Y-215600000I-300000J0D01*
G01*
X115050000Y-215900000D02*
G75*
G03X114750000Y-215600000I-300000J0D01*
G01*
X45050000Y-215900000D02*
G75*
G03X44750000Y-215600000I-300000J0D01*
G01*
X185050000Y-185900000D02*
G75*
G03X184750000Y-185600000I-300000J0D01*
G01*
X115050000Y-185900000D02*
G75*
G03X114750000Y-185600000I-300000J0D01*
G01*
X45050000Y-185900000D02*
G75*
G03X44750000Y-185600000I-300000J0D01*
G01*
X185050000Y-155900000D02*
G75*
G03X184750000Y-155600000I-300000J0D01*
G01*
X115050000Y-155900000D02*
G75*
G03X114750000Y-155600000I-300000J0D01*
G01*
X45050000Y-155900000D02*
G75*
G03X44750000Y-155600000I-300000J0D01*
G01*
X185050000Y-125900000D02*
G75*
G03X184750000Y-125600000I-300000J0D01*
G01*
X115050000Y-125900000D02*
G75*
G03X114750000Y-125600000I-300000J0D01*
G01*
X45050000Y-125900000D02*
G75*
G03X44750000Y-125600000I-300000J0D01*
G01*
X185050000Y-95900000D02*
G75*
G03X184750000Y-95600000I-300000J0D01*
G01*
X115050000Y-95900000D02*
G75*
G03X114750000Y-95600000I-300000J0D01*
G01*
X45050000Y-95900000D02*
G75*
G03X44750000Y-95600000I-300000J0D01*
G01*
X185050000Y-65900000D02*
G75*
G03X184750000Y-65600000I-300000J0D01*
G01*
X115050000Y-65900000D02*
G75*
G03X114750000Y-65600000I-300000J0D01*
G01*
X45050000Y-65900000D02*
G75*
G03X44750000Y-65600000I-300000J0D01*
G01*
X185050000Y-35900000D02*
G75*
G03X184750000Y-35600000I-300000J0D01*
G01*
X115050000Y-35900000D02*
G75*
G03X114750000Y-35600000I-300000J0D01*
G01*
X45050000Y-35900000D02*
G75*
G03X44750000Y-35600000I-300000J0D01*
G01*
X185050000Y-5900000D02*
G75*
G03X184750000Y-5600000I-300000J0D01*
G01*
X115050000Y-5900000D02*
G75*
G03X114750000Y-5600000I-300000J0D01*
G01*
X156050000Y-357300000D02*
G75*
G03X156350000Y-357600000I300000J0D01*
G01*
X86050000Y-357300000D02*
G75*
G03X86350000Y-357600000I300000J0D01*
G01*
X16050000Y-357300000D02*
G75*
G03X16350000Y-357600000I300000J0D01*
G01*
X156050000Y-327300000D02*
G75*
G03X156350000Y-327600000I300000J0D01*
G01*
X86050000Y-327300000D02*
G75*
G03X86350000Y-327600000I300000J0D01*
G01*
X16050000Y-327300000D02*
G75*
G03X16350000Y-327600000I300000J0D01*
G01*
X156050000Y-297300000D02*
G75*
G03X156350000Y-297600000I300000J0D01*
G01*
X86050000Y-297300000D02*
G75*
G03X86350000Y-297600000I300000J0D01*
G01*
X16050000Y-297300000D02*
G75*
G03X16350000Y-297600000I300000J0D01*
G01*
X156050000Y-267300000D02*
G75*
G03X156350000Y-267600000I300000J0D01*
G01*
X86050000Y-267300000D02*
G75*
G03X86350000Y-267600000I300000J0D01*
G01*
X16050000Y-267300000D02*
G75*
G03X16350000Y-267600000I300000J0D01*
G01*
X156050000Y-237300000D02*
G75*
G03X156350000Y-237600000I300000J0D01*
G01*
X86050000Y-237300000D02*
G75*
G03X86350000Y-237600000I300000J0D01*
G01*
X16050000Y-237300000D02*
G75*
G03X16350000Y-237600000I300000J0D01*
G01*
X156050000Y-207300000D02*
G75*
G03X156350000Y-207600000I300000J0D01*
G01*
X86050000Y-207300000D02*
G75*
G03X86350000Y-207600000I300000J0D01*
G01*
X16050000Y-207300000D02*
G75*
G03X16350000Y-207600000I300000J0D01*
G01*
X156050000Y-177300000D02*
G75*
G03X156350000Y-177600000I300000J0D01*
G01*
X86050000Y-177300000D02*
G75*
G03X86350000Y-177600000I300000J0D01*
G01*
X16050000Y-177300000D02*
G75*
G03X16350000Y-177600000I300000J0D01*
G01*
X156050000Y-147300000D02*
G75*
G03X156350000Y-147600000I300000J0D01*
G01*
X86050000Y-147300000D02*
G75*
G03X86350000Y-147600000I300000J0D01*
G01*
X16050000Y-147300000D02*
G75*
G03X16350000Y-147600000I300000J0D01*
G01*
X156050000Y-117300000D02*
G75*
G03X156350000Y-117600000I300000J0D01*
G01*
X86050000Y-117300000D02*
G75*
G03X86350000Y-117600000I300000J0D01*
G01*
X16050000Y-117300000D02*
G75*
G03X16350000Y-117600000I300000J0D01*
G01*
X156050000Y-87300000D02*
G75*
G03X156350000Y-87600000I300000J0D01*
G01*
X86050000Y-87300000D02*
G75*
G03X86350000Y-87600000I300000J0D01*
G01*
X16050000Y-87300000D02*
G75*
G03X16350000Y-87600000I300000J0D01*
G01*
X156050000Y-57300000D02*
G75*
G03X156350000Y-57600000I300000J0D01*
G01*
X86050000Y-57300000D02*
G75*
G03X86350000Y-57600000I300000J0D01*
G01*
X16050000Y-57300000D02*
G75*
G03X16350000Y-57600000I300000J0D01*
G01*
X156050000Y-27300000D02*
G75*
G03X156350000Y-27600000I300000J0D01*
G01*
X86050000Y-27300000D02*
G75*
G03X86350000Y-27600000I300000J0D01*
G01*
X156350000Y-357600000D02*
X184750000Y-357600000D01*
X86350000Y-357600000D02*
X114750000Y-357600000D01*
X16350000Y-357600000D02*
X44750000Y-357600000D01*
X156350000Y-327600000D02*
X184750000Y-327600000D01*
X86350000Y-327600000D02*
X114750000Y-327600000D01*
X16350000Y-327600000D02*
X44750000Y-327600000D01*
X156350000Y-297600000D02*
X184750000Y-297600000D01*
X86350000Y-297600000D02*
X114750000Y-297600000D01*
X16350000Y-297600000D02*
X44750000Y-297600000D01*
X156350000Y-267600000D02*
X184750000Y-267600000D01*
X86350000Y-267600000D02*
X114750000Y-267600000D01*
X16350000Y-267600000D02*
X44750000Y-267600000D01*
X156350000Y-237600000D02*
X184750000Y-237600000D01*
X86350000Y-237600000D02*
X114750000Y-237600000D01*
X16350000Y-237600000D02*
X44750000Y-237600000D01*
X156350000Y-207600000D02*
X184750000Y-207600000D01*
X86350000Y-207600000D02*
X114750000Y-207600000D01*
X16350000Y-207600000D02*
X44750000Y-207600000D01*
X156350000Y-177600000D02*
X184750000Y-177600000D01*
X86350000Y-177600000D02*
X114750000Y-177600000D01*
X16350000Y-177600000D02*
X44750000Y-177600000D01*
X156350000Y-147600000D02*
X184750000Y-147600000D01*
X86350000Y-147600000D02*
X114750000Y-147600000D01*
X16350000Y-147600000D02*
X44750000Y-147600000D01*
X156350000Y-117600000D02*
X184750000Y-117600000D01*
X86350000Y-117600000D02*
X114750000Y-117600000D01*
X16350000Y-117600000D02*
X44750000Y-117600000D01*
X156350000Y-87600000D02*
X184750000Y-87600000D01*
X86350000Y-87600000D02*
X114750000Y-87600000D01*
X16350000Y-87600000D02*
X44750000Y-87600000D01*
X156350000Y-57600000D02*
X184750000Y-57600000D01*
X86350000Y-57600000D02*
X114750000Y-57600000D01*
X16350000Y-57600000D02*
X44750000Y-57600000D01*
X156350000Y-27600000D02*
X184750000Y-27600000D01*
X86350000Y-27600000D02*
X114750000Y-27600000D01*
X156350000Y-335600000D02*
G75*
G03X156050000Y-335900000I0J-300000D01*
G01*
X86350000Y-335600000D02*
G75*
G03X86050000Y-335900000I0J-300000D01*
G01*
X16350000Y-335600000D02*
G75*
G03X16050000Y-335900000I0J-300000D01*
G01*
X156350000Y-305600000D02*
G75*
G03X156050000Y-305900000I0J-300000D01*
G01*
X86350000Y-305600000D02*
G75*
G03X86050000Y-305900000I0J-300000D01*
G01*
X16350000Y-305600000D02*
G75*
G03X16050000Y-305900000I0J-300000D01*
G01*
X156350000Y-275600000D02*
G75*
G03X156050000Y-275900000I0J-300000D01*
G01*
X86350000Y-275600000D02*
G75*
G03X86050000Y-275900000I0J-300000D01*
G01*
X16350000Y-275600000D02*
G75*
G03X16050000Y-275900000I0J-300000D01*
G01*
X156350000Y-245600000D02*
G75*
G03X156050000Y-245900000I0J-300000D01*
G01*
X86350000Y-245600000D02*
G75*
G03X86050000Y-245900000I0J-300000D01*
G01*
X16350000Y-245600000D02*
G75*
G03X16050000Y-245900000I0J-300000D01*
G01*
X156350000Y-215600000D02*
G75*
G03X156050000Y-215900000I0J-300000D01*
G01*
X86350000Y-215600000D02*
G75*
G03X86050000Y-215900000I0J-300000D01*
G01*
X16350000Y-215600000D02*
G75*
G03X16050000Y-215900000I0J-300000D01*
G01*
X156350000Y-185600000D02*
G75*
G03X156050000Y-185900000I0J-300000D01*
G01*
X86350000Y-185600000D02*
G75*
G03X86050000Y-185900000I0J-300000D01*
G01*
X16350000Y-185600000D02*
G75*
G03X16050000Y-185900000I0J-300000D01*
G01*
X156350000Y-155600000D02*
G75*
G03X156050000Y-155900000I0J-300000D01*
G01*
X86350000Y-155600000D02*
G75*
G03X86050000Y-155900000I0J-300000D01*
G01*
X16350000Y-155600000D02*
G75*
G03X16050000Y-155900000I0J-300000D01*
G01*
X156350000Y-125600000D02*
G75*
G03X156050000Y-125900000I0J-300000D01*
G01*
X86350000Y-125600000D02*
G75*
G03X86050000Y-125900000I0J-300000D01*
G01*
X16350000Y-125600000D02*
G75*
G03X16050000Y-125900000I0J-300000D01*
G01*
X156350000Y-95600000D02*
G75*
G03X156050000Y-95900000I0J-300000D01*
G01*
X86350000Y-95600000D02*
G75*
G03X86050000Y-95900000I0J-300000D01*
G01*
X16350000Y-95600000D02*
G75*
G03X16050000Y-95900000I0J-300000D01*
G01*
X156350000Y-65600000D02*
G75*
G03X156050000Y-65900000I0J-300000D01*
G01*
X86350000Y-65600000D02*
G75*
G03X86050000Y-65900000I0J-300000D01*
G01*
X16350000Y-65600000D02*
G75*
G03X16050000Y-65900000I0J-300000D01*
G01*
X156350000Y-35600000D02*
G75*
G03X156050000Y-35900000I0J-300000D01*
G01*
X86350000Y-35600000D02*
G75*
G03X86050000Y-35900000I0J-300000D01*
G01*
X16350000Y-35600000D02*
G75*
G03X16050000Y-35900000I0J-300000D01*
G01*
X156350000Y-5600000D02*
G75*
G03X156050000Y-5900000I0J-300000D01*
G01*
X86350000Y-5600000D02*
G75*
G03X86050000Y-5900000I0J-300000D01*
G01*
X146975000Y-350600000D02*
X141775000Y-350600000D01*
X76975000Y-350600000D02*
X71775000Y-350600000D01*
X6975000Y-350600000D02*
X1775000Y-350600000D01*
X146975000Y-320600000D02*
X141775000Y-320600000D01*
X76975000Y-320600000D02*
X71775000Y-320600000D01*
X6975000Y-320600000D02*
X1775000Y-320600000D01*
X146975000Y-290600000D02*
X141775000Y-290600000D01*
X76975000Y-290600000D02*
X71775000Y-290600000D01*
X6975000Y-290600000D02*
X1775000Y-290600000D01*
X146975000Y-260600000D02*
X141775000Y-260600000D01*
X76975000Y-260600000D02*
X71775000Y-260600000D01*
X6975000Y-260600000D02*
X1775000Y-260600000D01*
X146975000Y-230600000D02*
X141775000Y-230600000D01*
X76975000Y-230600000D02*
X71775000Y-230600000D01*
X6975000Y-230600000D02*
X1775000Y-230600000D01*
X146975000Y-200600000D02*
X141775000Y-200600000D01*
X76975000Y-200600000D02*
X71775000Y-200600000D01*
X6975000Y-200600000D02*
X1775000Y-200600000D01*
X146975000Y-170600000D02*
X141775000Y-170600000D01*
X76975000Y-170600000D02*
X71775000Y-170600000D01*
X6975000Y-170600000D02*
X1775000Y-170600000D01*
X146975000Y-140600000D02*
X141775000Y-140600000D01*
X76975000Y-140600000D02*
X71775000Y-140600000D01*
X6975000Y-140600000D02*
X1775000Y-140600000D01*
X146975000Y-110600000D02*
X141775000Y-110600000D01*
X76975000Y-110600000D02*
X71775000Y-110600000D01*
X6975000Y-110600000D02*
X1775000Y-110600000D01*
X146975000Y-80600000D02*
X141775000Y-80600000D01*
X76975000Y-80600000D02*
X71775000Y-80600000D01*
X6975000Y-80600000D02*
X1775000Y-80600000D01*
X146975000Y-50600000D02*
X141775000Y-50600000D01*
X76975000Y-50600000D02*
X71775000Y-50600000D01*
X6975000Y-50600000D02*
X1775000Y-50600000D01*
X146975000Y-20600000D02*
X141775000Y-20600000D01*
X76975000Y-20600000D02*
X71775000Y-20600000D01*
X141775000Y-350600000D02*
X141775000Y-355300000D01*
X71775000Y-350600000D02*
X71775000Y-355300000D01*
X1775000Y-350600000D02*
X1775000Y-355300000D01*
X141775000Y-320600000D02*
X141775000Y-325300000D01*
X71775000Y-320600000D02*
X71775000Y-325300000D01*
X1775000Y-320600000D02*
X1775000Y-325300000D01*
X141775000Y-290600000D02*
X141775000Y-295300000D01*
X71775000Y-290600000D02*
X71775000Y-295300000D01*
X1775000Y-290600000D02*
X1775000Y-295300000D01*
X141775000Y-260600000D02*
X141775000Y-265300000D01*
X71775000Y-260600000D02*
X71775000Y-265300000D01*
X1775000Y-260600000D02*
X1775000Y-265300000D01*
X141775000Y-230600000D02*
X141775000Y-235300000D01*
X71775000Y-230600000D02*
X71775000Y-235300000D01*
X1775000Y-230600000D02*
X1775000Y-235300000D01*
X141775000Y-200600000D02*
X141775000Y-205300000D01*
X71775000Y-200600000D02*
X71775000Y-205300000D01*
X1775000Y-200600000D02*
X1775000Y-205300000D01*
X141775000Y-170600000D02*
X141775000Y-175300000D01*
X71775000Y-170600000D02*
X71775000Y-175300000D01*
X1775000Y-170600000D02*
X1775000Y-175300000D01*
X141775000Y-140600000D02*
X141775000Y-145300000D01*
X71775000Y-140600000D02*
X71775000Y-145300000D01*
X1775000Y-140600000D02*
X1775000Y-145300000D01*
X141775000Y-110600000D02*
X141775000Y-115300000D01*
X71775000Y-110600000D02*
X71775000Y-115300000D01*
X1775000Y-110600000D02*
X1775000Y-115300000D01*
X141775000Y-80600000D02*
X141775000Y-85300000D01*
X71775000Y-80600000D02*
X71775000Y-85300000D01*
X1775000Y-80600000D02*
X1775000Y-85300000D01*
X141775000Y-50600000D02*
X141775000Y-55300000D01*
X71775000Y-50600000D02*
X71775000Y-55300000D01*
X1775000Y-50600000D02*
X1775000Y-55300000D01*
X141775000Y-20600000D02*
X141775000Y-25300000D01*
X71775000Y-20600000D02*
X71775000Y-25300000D01*
X141775000Y-355300000D02*
X141775000Y-356600000D01*
X71775000Y-355300000D02*
X71775000Y-356600000D01*
X1775000Y-355300000D02*
X1775000Y-356600000D01*
X141775000Y-325300000D02*
X141775000Y-326600000D01*
X71775000Y-325300000D02*
X71775000Y-326600000D01*
X1775000Y-325300000D02*
X1775000Y-326600000D01*
X141775000Y-295300000D02*
X141775000Y-296600000D01*
X71775000Y-295300000D02*
X71775000Y-296600000D01*
X1775000Y-295300000D02*
X1775000Y-296600000D01*
X141775000Y-265300000D02*
X141775000Y-266600000D01*
X71775000Y-265300000D02*
X71775000Y-266600000D01*
X1775000Y-265300000D02*
X1775000Y-266600000D01*
X141775000Y-235300000D02*
X141775000Y-236600000D01*
X71775000Y-235300000D02*
X71775000Y-236600000D01*
X1775000Y-235300000D02*
X1775000Y-236600000D01*
X141775000Y-205300000D02*
X141775000Y-206600000D01*
X71775000Y-205300000D02*
X71775000Y-206600000D01*
X1775000Y-205300000D02*
X1775000Y-206600000D01*
X141775000Y-175300000D02*
X141775000Y-176600000D01*
X71775000Y-175300000D02*
X71775000Y-176600000D01*
X1775000Y-175300000D02*
X1775000Y-176600000D01*
X141775000Y-145300000D02*
X141775000Y-146600000D01*
X71775000Y-145300000D02*
X71775000Y-146600000D01*
X1775000Y-145300000D02*
X1775000Y-146600000D01*
X141775000Y-115300000D02*
X141775000Y-116600000D01*
X71775000Y-115300000D02*
X71775000Y-116600000D01*
X1775000Y-115300000D02*
X1775000Y-116600000D01*
X141775000Y-85300000D02*
X141775000Y-86600000D01*
X71775000Y-85300000D02*
X71775000Y-86600000D01*
X1775000Y-85300000D02*
X1775000Y-86600000D01*
X141775000Y-55300000D02*
X141775000Y-56600000D01*
X71775000Y-55300000D02*
X71775000Y-56600000D01*
X1775000Y-55300000D02*
X1775000Y-56600000D01*
X141775000Y-25300000D02*
X141775000Y-26600000D01*
X71775000Y-25300000D02*
X71775000Y-26600000D01*
X156350000Y-335600000D02*
X184750000Y-335600000D01*
X86350000Y-335600000D02*
X114750000Y-335600000D01*
X16350000Y-335600000D02*
X44750000Y-335600000D01*
X156350000Y-305600000D02*
X184750000Y-305600000D01*
X86350000Y-305600000D02*
X114750000Y-305600000D01*
X16350000Y-305600000D02*
X44750000Y-305600000D01*
X156350000Y-275600000D02*
X184750000Y-275600000D01*
X86350000Y-275600000D02*
X114750000Y-275600000D01*
X16350000Y-275600000D02*
X44750000Y-275600000D01*
X156350000Y-245600000D02*
X184750000Y-245600000D01*
X86350000Y-245600000D02*
X114750000Y-245600000D01*
X16350000Y-245600000D02*
X44750000Y-245600000D01*
X156350000Y-215600000D02*
X184750000Y-215600000D01*
X86350000Y-215600000D02*
X114750000Y-215600000D01*
X16350000Y-215600000D02*
X44750000Y-215600000D01*
X156350000Y-185600000D02*
X184750000Y-185600000D01*
X86350000Y-185600000D02*
X114750000Y-185600000D01*
X16350000Y-185600000D02*
X44750000Y-185600000D01*
X156350000Y-155600000D02*
X184750000Y-155600000D01*
X86350000Y-155600000D02*
X114750000Y-155600000D01*
X16350000Y-155600000D02*
X44750000Y-155600000D01*
X156350000Y-125600000D02*
X184750000Y-125600000D01*
X86350000Y-125600000D02*
X114750000Y-125600000D01*
X16350000Y-125600000D02*
X44750000Y-125600000D01*
X156350000Y-95600000D02*
X184750000Y-95600000D01*
X86350000Y-95600000D02*
X114750000Y-95600000D01*
X16350000Y-95600000D02*
X44750000Y-95600000D01*
X156350000Y-65600000D02*
X184750000Y-65600000D01*
X86350000Y-65600000D02*
X114750000Y-65600000D01*
X16350000Y-65600000D02*
X44750000Y-65600000D01*
X156350000Y-35600000D02*
X184750000Y-35600000D01*
X86350000Y-35600000D02*
X114750000Y-35600000D01*
X16350000Y-35600000D02*
X44750000Y-35600000D01*
X156350000Y-5600000D02*
X184750000Y-5600000D01*
X86350000Y-5600000D02*
X114750000Y-5600000D01*
X141775000Y-356600000D02*
X147175000Y-356600000D01*
X71775000Y-356600000D02*
X77175000Y-356600000D01*
X1775000Y-356600000D02*
X7175000Y-356600000D01*
X141775000Y-326600000D02*
X147175000Y-326600000D01*
X71775000Y-326600000D02*
X77175000Y-326600000D01*
X1775000Y-326600000D02*
X7175000Y-326600000D01*
X141775000Y-296600000D02*
X147175000Y-296600000D01*
X71775000Y-296600000D02*
X77175000Y-296600000D01*
X1775000Y-296600000D02*
X7175000Y-296600000D01*
X141775000Y-266600000D02*
X147175000Y-266600000D01*
X71775000Y-266600000D02*
X77175000Y-266600000D01*
X1775000Y-266600000D02*
X7175000Y-266600000D01*
X141775000Y-236600000D02*
X147175000Y-236600000D01*
X71775000Y-236600000D02*
X77175000Y-236600000D01*
X1775000Y-236600000D02*
X7175000Y-236600000D01*
X141775000Y-206600000D02*
X147175000Y-206600000D01*
X71775000Y-206600000D02*
X77175000Y-206600000D01*
X1775000Y-206600000D02*
X7175000Y-206600000D01*
X141775000Y-176600000D02*
X147175000Y-176600000D01*
X71775000Y-176600000D02*
X77175000Y-176600000D01*
X1775000Y-176600000D02*
X7175000Y-176600000D01*
X141775000Y-146600000D02*
X147175000Y-146600000D01*
X71775000Y-146600000D02*
X77175000Y-146600000D01*
X1775000Y-146600000D02*
X7175000Y-146600000D01*
X141775000Y-116600000D02*
X147175000Y-116600000D01*
X71775000Y-116600000D02*
X77175000Y-116600000D01*
X1775000Y-116600000D02*
X7175000Y-116600000D01*
X141775000Y-86600000D02*
X147175000Y-86600000D01*
X71775000Y-86600000D02*
X77175000Y-86600000D01*
X1775000Y-86600000D02*
X7175000Y-86600000D01*
X141775000Y-56600000D02*
X147175000Y-56600000D01*
X71775000Y-56600000D02*
X77175000Y-56600000D01*
X1775000Y-56600000D02*
X7175000Y-56600000D01*
X141775000Y-26600000D02*
X147175000Y-26600000D01*
X71775000Y-26600000D02*
X77175000Y-26600000D01*
X147175000Y-356600000D02*
X149075000Y-354700000D01*
X77175000Y-356600000D02*
X79075000Y-354700000D01*
X7175000Y-356600000D02*
X9075000Y-354700000D01*
X147175000Y-326600000D02*
X149075000Y-324700000D01*
X77175000Y-326600000D02*
X79075000Y-324700000D01*
X7175000Y-326600000D02*
X9075000Y-324700000D01*
X147175000Y-296600000D02*
X149075000Y-294700000D01*
X77175000Y-296600000D02*
X79075000Y-294700000D01*
X7175000Y-296600000D02*
X9075000Y-294700000D01*
X147175000Y-266600000D02*
X149075000Y-264700000D01*
X77175000Y-266600000D02*
X79075000Y-264700000D01*
X7175000Y-266600000D02*
X9075000Y-264700000D01*
X147175000Y-236600000D02*
X149075000Y-234700000D01*
X77175000Y-236600000D02*
X79075000Y-234700000D01*
X7175000Y-236600000D02*
X9075000Y-234700000D01*
X147175000Y-206600000D02*
X149075000Y-204700000D01*
X77175000Y-206600000D02*
X79075000Y-204700000D01*
X7175000Y-206600000D02*
X9075000Y-204700000D01*
X147175000Y-176600000D02*
X149075000Y-174700000D01*
X77175000Y-176600000D02*
X79075000Y-174700000D01*
X7175000Y-176600000D02*
X9075000Y-174700000D01*
X147175000Y-146600000D02*
X149075000Y-144700000D01*
X77175000Y-146600000D02*
X79075000Y-144700000D01*
X7175000Y-146600000D02*
X9075000Y-144700000D01*
X147175000Y-116600000D02*
X149075000Y-114700000D01*
X77175000Y-116600000D02*
X79075000Y-114700000D01*
X7175000Y-116600000D02*
X9075000Y-114700000D01*
X147175000Y-86600000D02*
X149075000Y-84700000D01*
X77175000Y-86600000D02*
X79075000Y-84700000D01*
X7175000Y-86600000D02*
X9075000Y-84700000D01*
X147175000Y-56600000D02*
X149075000Y-54700000D01*
X77175000Y-56600000D02*
X79075000Y-54700000D01*
X7175000Y-56600000D02*
X9075000Y-54700000D01*
X147175000Y-26600000D02*
X149075000Y-24700000D01*
X77175000Y-26600000D02*
X79075000Y-24700000D01*
X156055000Y-357295000D02*
X156055000Y-354995000D01*
X86055000Y-357295000D02*
X86055000Y-354995000D01*
X16055000Y-357295000D02*
X16055000Y-354995000D01*
X156055000Y-327295000D02*
X156055000Y-324995000D01*
X86055000Y-327295000D02*
X86055000Y-324995000D01*
X16055000Y-327295000D02*
X16055000Y-324995000D01*
X156055000Y-297295000D02*
X156055000Y-294995000D01*
X86055000Y-297295000D02*
X86055000Y-294995000D01*
X16055000Y-297295000D02*
X16055000Y-294995000D01*
X156055000Y-267295000D02*
X156055000Y-264995000D01*
X86055000Y-267295000D02*
X86055000Y-264995000D01*
X16055000Y-267295000D02*
X16055000Y-264995000D01*
X156055000Y-237295000D02*
X156055000Y-234995000D01*
X86055000Y-237295000D02*
X86055000Y-234995000D01*
X16055000Y-237295000D02*
X16055000Y-234995000D01*
X156055000Y-207295000D02*
X156055000Y-204995000D01*
X86055000Y-207295000D02*
X86055000Y-204995000D01*
X16055000Y-207295000D02*
X16055000Y-204995000D01*
X156055000Y-177295000D02*
X156055000Y-174995000D01*
X86055000Y-177295000D02*
X86055000Y-174995000D01*
X16055000Y-177295000D02*
X16055000Y-174995000D01*
X156055000Y-147295000D02*
X156055000Y-144995000D01*
X86055000Y-147295000D02*
X86055000Y-144995000D01*
X16055000Y-147295000D02*
X16055000Y-144995000D01*
X156055000Y-117295000D02*
X156055000Y-114995000D01*
X86055000Y-117295000D02*
X86055000Y-114995000D01*
X16055000Y-117295000D02*
X16055000Y-114995000D01*
X156055000Y-87295000D02*
X156055000Y-84995000D01*
X86055000Y-87295000D02*
X86055000Y-84995000D01*
X16055000Y-87295000D02*
X16055000Y-84995000D01*
X156055000Y-57295000D02*
X156055000Y-54995000D01*
X86055000Y-57295000D02*
X86055000Y-54995000D01*
X16055000Y-57295000D02*
X16055000Y-54995000D01*
X156055000Y-27295000D02*
X156055000Y-24995000D01*
X86055000Y-27295000D02*
X86055000Y-24995000D01*
X205950000Y-345400000D02*
X205950000Y-358200000D01*
X135950000Y-345400000D02*
X135950000Y-358200000D01*
X65950000Y-345400000D02*
X65950000Y-358200000D01*
X205950000Y-315400000D02*
X205950000Y-328200000D01*
X135950000Y-315400000D02*
X135950000Y-328200000D01*
X65950000Y-315400000D02*
X65950000Y-328200000D01*
X205950000Y-285400000D02*
X205950000Y-298200000D01*
X135950000Y-285400000D02*
X135950000Y-298200000D01*
X65950000Y-285400000D02*
X65950000Y-298200000D01*
X205950000Y-255400000D02*
X205950000Y-268200000D01*
X135950000Y-255400000D02*
X135950000Y-268200000D01*
X65950000Y-255400000D02*
X65950000Y-268200000D01*
X205950000Y-225400000D02*
X205950000Y-238200000D01*
X135950000Y-225400000D02*
X135950000Y-238200000D01*
X65950000Y-225400000D02*
X65950000Y-238200000D01*
X205950000Y-195400000D02*
X205950000Y-208200000D01*
X135950000Y-195400000D02*
X135950000Y-208200000D01*
X65950000Y-195400000D02*
X65950000Y-208200000D01*
X205950000Y-165400000D02*
X205950000Y-178200000D01*
X135950000Y-165400000D02*
X135950000Y-178200000D01*
X65950000Y-165400000D02*
X65950000Y-178200000D01*
X205950000Y-135400000D02*
X205950000Y-148200000D01*
X135950000Y-135400000D02*
X135950000Y-148200000D01*
X65950000Y-135400000D02*
X65950000Y-148200000D01*
X205950000Y-105400000D02*
X205950000Y-118200000D01*
X135950000Y-105400000D02*
X135950000Y-118200000D01*
X65950000Y-105400000D02*
X65950000Y-118200000D01*
X205950000Y-75400000D02*
X205950000Y-88200000D01*
X135950000Y-75400000D02*
X135950000Y-88200000D01*
X65950000Y-75400000D02*
X65950000Y-88200000D01*
X205950000Y-45400000D02*
X205950000Y-58200000D01*
X135950000Y-45400000D02*
X135950000Y-58200000D01*
X65950000Y-45400000D02*
X65950000Y-58200000D01*
X205950000Y-15400000D02*
X205950000Y-28200000D01*
X135950000Y-15400000D02*
X135950000Y-28200000D01*
X205950000Y-358200000D02*
X198250000Y-358200000D01*
X135950000Y-358200000D02*
X128250000Y-358200000D01*
X65950000Y-358200000D02*
X58250000Y-358200000D01*
X205950000Y-328200000D02*
X198250000Y-328200000D01*
X135950000Y-328200000D02*
X128250000Y-328200000D01*
X65950000Y-328200000D02*
X58250000Y-328200000D01*
X205950000Y-298200000D02*
X198250000Y-298200000D01*
X135950000Y-298200000D02*
X128250000Y-298200000D01*
X65950000Y-298200000D02*
X58250000Y-298200000D01*
X205950000Y-268200000D02*
X198250000Y-268200000D01*
X135950000Y-268200000D02*
X128250000Y-268200000D01*
X65950000Y-268200000D02*
X58250000Y-268200000D01*
X205950000Y-238200000D02*
X198250000Y-238200000D01*
X135950000Y-238200000D02*
X128250000Y-238200000D01*
X65950000Y-238200000D02*
X58250000Y-238200000D01*
X205950000Y-208200000D02*
X198250000Y-208200000D01*
X135950000Y-208200000D02*
X128250000Y-208200000D01*
X65950000Y-208200000D02*
X58250000Y-208200000D01*
X205950000Y-178200000D02*
X198250000Y-178200000D01*
X135950000Y-178200000D02*
X128250000Y-178200000D01*
X65950000Y-178200000D02*
X58250000Y-178200000D01*
X205950000Y-148200000D02*
X198250000Y-148200000D01*
X135950000Y-148200000D02*
X128250000Y-148200000D01*
X65950000Y-148200000D02*
X58250000Y-148200000D01*
X205950000Y-118200000D02*
X198250000Y-118200000D01*
X135950000Y-118200000D02*
X128250000Y-118200000D01*
X65950000Y-118200000D02*
X58250000Y-118200000D01*
X205950000Y-88200000D02*
X198250000Y-88200000D01*
X135950000Y-88200000D02*
X128250000Y-88200000D01*
X65950000Y-88200000D02*
X58250000Y-88200000D01*
X205950000Y-58200000D02*
X198250000Y-58200000D01*
X135950000Y-58200000D02*
X128250000Y-58200000D01*
X65950000Y-58200000D02*
X58250000Y-58200000D01*
X205950000Y-28200000D02*
X198250000Y-28200000D01*
X135950000Y-28200000D02*
X128250000Y-28200000D01*
X198250000Y-358200000D02*
X195050000Y-355000000D01*
X128250000Y-358200000D02*
X125050000Y-355000000D01*
X58250000Y-358200000D02*
X55050000Y-355000000D01*
X198250000Y-328200000D02*
X195050000Y-325000000D01*
X128250000Y-328200000D02*
X125050000Y-325000000D01*
X58250000Y-328200000D02*
X55050000Y-325000000D01*
X198250000Y-298200000D02*
X195050000Y-295000000D01*
X128250000Y-298200000D02*
X125050000Y-295000000D01*
X58250000Y-298200000D02*
X55050000Y-295000000D01*
X198250000Y-268200000D02*
X195050000Y-265000000D01*
X128250000Y-268200000D02*
X125050000Y-265000000D01*
X58250000Y-268200000D02*
X55050000Y-265000000D01*
X198250000Y-238200000D02*
X195050000Y-235000000D01*
X128250000Y-238200000D02*
X125050000Y-235000000D01*
X58250000Y-238200000D02*
X55050000Y-235000000D01*
X198250000Y-208200000D02*
X195050000Y-205000000D01*
X128250000Y-208200000D02*
X125050000Y-205000000D01*
X58250000Y-208200000D02*
X55050000Y-205000000D01*
X198250000Y-178200000D02*
X195050000Y-175000000D01*
X128250000Y-178200000D02*
X125050000Y-175000000D01*
X58250000Y-178200000D02*
X55050000Y-175000000D01*
X198250000Y-148200000D02*
X195050000Y-145000000D01*
X128250000Y-148200000D02*
X125050000Y-145000000D01*
X58250000Y-148200000D02*
X55050000Y-145000000D01*
X198250000Y-118200000D02*
X195050000Y-115000000D01*
X128250000Y-118200000D02*
X125050000Y-115000000D01*
X58250000Y-118200000D02*
X55050000Y-115000000D01*
X198250000Y-88200000D02*
X195050000Y-85000000D01*
X128250000Y-88200000D02*
X125050000Y-85000000D01*
X58250000Y-88200000D02*
X55050000Y-85000000D01*
X198250000Y-58200000D02*
X195050000Y-55000000D01*
X128250000Y-58200000D02*
X125050000Y-55000000D01*
X58250000Y-58200000D02*
X55050000Y-55000000D01*
X198250000Y-28200000D02*
X195050000Y-25000000D01*
X128250000Y-28200000D02*
X125050000Y-25000000D01*
X185050000Y-335900000D02*
X185050000Y-340900000D01*
X115050000Y-335900000D02*
X115050000Y-340900000D01*
X45050000Y-335900000D02*
X45050000Y-340900000D01*
X185050000Y-305900000D02*
X185050000Y-310900000D01*
X115050000Y-305900000D02*
X115050000Y-310900000D01*
X45050000Y-305900000D02*
X45050000Y-310900000D01*
X185050000Y-275900000D02*
X185050000Y-280900000D01*
X115050000Y-275900000D02*
X115050000Y-280900000D01*
X45050000Y-275900000D02*
X45050000Y-280900000D01*
X185050000Y-245900000D02*
X185050000Y-250900000D01*
X115050000Y-245900000D02*
X115050000Y-250900000D01*
X45050000Y-245900000D02*
X45050000Y-250900000D01*
X185050000Y-215900000D02*
X185050000Y-220900000D01*
X115050000Y-215900000D02*
X115050000Y-220900000D01*
X45050000Y-215900000D02*
X45050000Y-220900000D01*
X185050000Y-185900000D02*
X185050000Y-190900000D01*
X115050000Y-185900000D02*
X115050000Y-190900000D01*
X45050000Y-185900000D02*
X45050000Y-190900000D01*
X185050000Y-155900000D02*
X185050000Y-160900000D01*
X115050000Y-155900000D02*
X115050000Y-160900000D01*
X45050000Y-155900000D02*
X45050000Y-160900000D01*
X185050000Y-125900000D02*
X185050000Y-130900000D01*
X115050000Y-125900000D02*
X115050000Y-130900000D01*
X45050000Y-125900000D02*
X45050000Y-130900000D01*
X185050000Y-95900000D02*
X185050000Y-100900000D01*
X115050000Y-95900000D02*
X115050000Y-100900000D01*
X45050000Y-95900000D02*
X45050000Y-100900000D01*
X185050000Y-65900000D02*
X185050000Y-70900000D01*
X115050000Y-65900000D02*
X115050000Y-70900000D01*
X45050000Y-65900000D02*
X45050000Y-70900000D01*
X185050000Y-35900000D02*
X185050000Y-40900000D01*
X115050000Y-35900000D02*
X115050000Y-40900000D01*
X45050000Y-35900000D02*
X45050000Y-40900000D01*
X185050000Y-5900000D02*
X185050000Y-10900000D01*
X115050000Y-5900000D02*
X115050000Y-10900000D01*
X195050000Y-355000000D02*
X185350000Y-355000000D01*
X125050000Y-355000000D02*
X115350000Y-355000000D01*
X55050000Y-355000000D02*
X45350000Y-355000000D01*
X195050000Y-325000000D02*
X185350000Y-325000000D01*
X125050000Y-325000000D02*
X115350000Y-325000000D01*
X55050000Y-325000000D02*
X45350000Y-325000000D01*
X195050000Y-295000000D02*
X185350000Y-295000000D01*
X125050000Y-295000000D02*
X115350000Y-295000000D01*
X55050000Y-295000000D02*
X45350000Y-295000000D01*
X195050000Y-265000000D02*
X185350000Y-265000000D01*
X125050000Y-265000000D02*
X115350000Y-265000000D01*
X55050000Y-265000000D02*
X45350000Y-265000000D01*
X195050000Y-235000000D02*
X185350000Y-235000000D01*
X125050000Y-235000000D02*
X115350000Y-235000000D01*
X55050000Y-235000000D02*
X45350000Y-235000000D01*
X195050000Y-205000000D02*
X185350000Y-205000000D01*
X125050000Y-205000000D02*
X115350000Y-205000000D01*
X55050000Y-205000000D02*
X45350000Y-205000000D01*
X195050000Y-175000000D02*
X185350000Y-175000000D01*
X125050000Y-175000000D02*
X115350000Y-175000000D01*
X55050000Y-175000000D02*
X45350000Y-175000000D01*
X195050000Y-145000000D02*
X185350000Y-145000000D01*
X125050000Y-145000000D02*
X115350000Y-145000000D01*
X55050000Y-145000000D02*
X45350000Y-145000000D01*
X195050000Y-115000000D02*
X185350000Y-115000000D01*
X125050000Y-115000000D02*
X115350000Y-115000000D01*
X55050000Y-115000000D02*
X45350000Y-115000000D01*
X195050000Y-85000000D02*
X185350000Y-85000000D01*
X125050000Y-85000000D02*
X115350000Y-85000000D01*
X55050000Y-85000000D02*
X45350000Y-85000000D01*
X195050000Y-55000000D02*
X185350000Y-55000000D01*
X125050000Y-55000000D02*
X115350000Y-55000000D01*
X55050000Y-55000000D02*
X45350000Y-55000000D01*
X195050000Y-25000000D02*
X185350000Y-25000000D01*
X125050000Y-25000000D02*
X115350000Y-25000000D01*
X185050000Y-357300000D02*
X185050000Y-355300000D01*
X115050000Y-357300000D02*
X115050000Y-355300000D01*
X45050000Y-357300000D02*
X45050000Y-355300000D01*
X185050000Y-327300000D02*
X185050000Y-325300000D01*
X115050000Y-327300000D02*
X115050000Y-325300000D01*
X45050000Y-327300000D02*
X45050000Y-325300000D01*
X185050000Y-297300000D02*
X185050000Y-295300000D01*
X115050000Y-297300000D02*
X115050000Y-295300000D01*
X45050000Y-297300000D02*
X45050000Y-295300000D01*
X185050000Y-267300000D02*
X185050000Y-265300000D01*
X115050000Y-267300000D02*
X115050000Y-265300000D01*
X45050000Y-267300000D02*
X45050000Y-265300000D01*
X185050000Y-237300000D02*
X185050000Y-235300000D01*
X115050000Y-237300000D02*
X115050000Y-235300000D01*
X45050000Y-237300000D02*
X45050000Y-235300000D01*
X185050000Y-207300000D02*
X185050000Y-205300000D01*
X115050000Y-207300000D02*
X115050000Y-205300000D01*
X45050000Y-207300000D02*
X45050000Y-205300000D01*
X185050000Y-177300000D02*
X185050000Y-175300000D01*
X115050000Y-177300000D02*
X115050000Y-175300000D01*
X45050000Y-177300000D02*
X45050000Y-175300000D01*
X185050000Y-147300000D02*
X185050000Y-145300000D01*
X115050000Y-147300000D02*
X115050000Y-145300000D01*
X45050000Y-147300000D02*
X45050000Y-145300000D01*
X185050000Y-117300000D02*
X185050000Y-115300000D01*
X115050000Y-117300000D02*
X115050000Y-115300000D01*
X45050000Y-117300000D02*
X45050000Y-115300000D01*
X185050000Y-87300000D02*
X185050000Y-85300000D01*
X115050000Y-87300000D02*
X115050000Y-85300000D01*
X45050000Y-87300000D02*
X45050000Y-85300000D01*
X185050000Y-57300000D02*
X185050000Y-55300000D01*
X115050000Y-57300000D02*
X115050000Y-55300000D01*
X45050000Y-57300000D02*
X45050000Y-55300000D01*
X185050000Y-27300000D02*
X185050000Y-25300000D01*
X115050000Y-27300000D02*
X115050000Y-25300000D01*
X185350000Y-355000000D02*
G75*
G03X185050000Y-355300000I0J-300000D01*
G01*
X115350000Y-355000000D02*
G75*
G03X115050000Y-355300000I0J-300000D01*
G01*
X45350000Y-355000000D02*
G75*
G03X45050000Y-355300000I0J-300000D01*
G01*
X185350000Y-325000000D02*
G75*
G03X185050000Y-325300000I0J-300000D01*
G01*
X115350000Y-325000000D02*
G75*
G03X115050000Y-325300000I0J-300000D01*
G01*
X45350000Y-325000000D02*
G75*
G03X45050000Y-325300000I0J-300000D01*
G01*
X185350000Y-295000000D02*
G75*
G03X185050000Y-295300000I0J-300000D01*
G01*
X115350000Y-295000000D02*
G75*
G03X115050000Y-295300000I0J-300000D01*
G01*
X45350000Y-295000000D02*
G75*
G03X45050000Y-295300000I0J-300000D01*
G01*
X185350000Y-265000000D02*
G75*
G03X185050000Y-265300000I0J-300000D01*
G01*
X115350000Y-265000000D02*
G75*
G03X115050000Y-265300000I0J-300000D01*
G01*
X45350000Y-265000000D02*
G75*
G03X45050000Y-265300000I0J-300000D01*
G01*
X185350000Y-235000000D02*
G75*
G03X185050000Y-235300000I0J-300000D01*
G01*
X115350000Y-235000000D02*
G75*
G03X115050000Y-235300000I0J-300000D01*
G01*
X45350000Y-235000000D02*
G75*
G03X45050000Y-235300000I0J-300000D01*
G01*
X185350000Y-205000000D02*
G75*
G03X185050000Y-205300000I0J-300000D01*
G01*
X115350000Y-205000000D02*
G75*
G03X115050000Y-205300000I0J-300000D01*
G01*
X45350000Y-205000000D02*
G75*
G03X45050000Y-205300000I0J-300000D01*
G01*
X185350000Y-175000000D02*
G75*
G03X185050000Y-175300000I0J-300000D01*
G01*
X115350000Y-175000000D02*
G75*
G03X115050000Y-175300000I0J-300000D01*
G01*
X45350000Y-175000000D02*
G75*
G03X45050000Y-175300000I0J-300000D01*
G01*
X185350000Y-145000000D02*
G75*
G03X185050000Y-145300000I0J-300000D01*
G01*
X115350000Y-145000000D02*
G75*
G03X115050000Y-145300000I0J-300000D01*
G01*
X45350000Y-145000000D02*
G75*
G03X45050000Y-145300000I0J-300000D01*
G01*
X185350000Y-115000000D02*
G75*
G03X185050000Y-115300000I0J-300000D01*
G01*
X115350000Y-115000000D02*
G75*
G03X115050000Y-115300000I0J-300000D01*
G01*
X45350000Y-115000000D02*
G75*
G03X45050000Y-115300000I0J-300000D01*
G01*
X185350000Y-85000000D02*
G75*
G03X185050000Y-85300000I0J-300000D01*
G01*
X115350000Y-85000000D02*
G75*
G03X115050000Y-85300000I0J-300000D01*
G01*
X45350000Y-85000000D02*
G75*
G03X45050000Y-85300000I0J-300000D01*
G01*
X185350000Y-55000000D02*
G75*
G03X185050000Y-55300000I0J-300000D01*
G01*
X115350000Y-55000000D02*
G75*
G03X115050000Y-55300000I0J-300000D01*
G01*
X45350000Y-55000000D02*
G75*
G03X45050000Y-55300000I0J-300000D01*
G01*
X185350000Y-25000000D02*
G75*
G03X185050000Y-25300000I0J-300000D01*
G01*
X115350000Y-25000000D02*
G75*
G03X115050000Y-25300000I0J-300000D01*
G01*
X197050000Y-341200000D02*
X185350000Y-341200000D01*
X127050000Y-341200000D02*
X115350000Y-341200000D01*
X57050000Y-341200000D02*
X45350000Y-341200000D01*
X197050000Y-311200000D02*
X185350000Y-311200000D01*
X127050000Y-311200000D02*
X115350000Y-311200000D01*
X57050000Y-311200000D02*
X45350000Y-311200000D01*
X197050000Y-281200000D02*
X185350000Y-281200000D01*
X127050000Y-281200000D02*
X115350000Y-281200000D01*
X57050000Y-281200000D02*
X45350000Y-281200000D01*
X197050000Y-251200000D02*
X185350000Y-251200000D01*
X127050000Y-251200000D02*
X115350000Y-251200000D01*
X57050000Y-251200000D02*
X45350000Y-251200000D01*
X197050000Y-221200000D02*
X185350000Y-221200000D01*
X127050000Y-221200000D02*
X115350000Y-221200000D01*
X57050000Y-221200000D02*
X45350000Y-221200000D01*
X197050000Y-191200000D02*
X185350000Y-191200000D01*
X127050000Y-191200000D02*
X115350000Y-191200000D01*
X57050000Y-191200000D02*
X45350000Y-191200000D01*
X197050000Y-161200000D02*
X185350000Y-161200000D01*
X127050000Y-161200000D02*
X115350000Y-161200000D01*
X57050000Y-161200000D02*
X45350000Y-161200000D01*
X197050000Y-131200000D02*
X185350000Y-131200000D01*
X127050000Y-131200000D02*
X115350000Y-131200000D01*
X57050000Y-131200000D02*
X45350000Y-131200000D01*
X197050000Y-101200000D02*
X185350000Y-101200000D01*
X127050000Y-101200000D02*
X115350000Y-101200000D01*
X57050000Y-101200000D02*
X45350000Y-101200000D01*
X197050000Y-71200000D02*
X185350000Y-71200000D01*
X127050000Y-71200000D02*
X115350000Y-71200000D01*
X57050000Y-71200000D02*
X45350000Y-71200000D01*
X197050000Y-41200000D02*
X185350000Y-41200000D01*
X127050000Y-41200000D02*
X115350000Y-41200000D01*
X57050000Y-41200000D02*
X45350000Y-41200000D01*
X197050000Y-11200000D02*
X185350000Y-11200000D01*
X127050000Y-11200000D02*
X115350000Y-11200000D01*
X185050000Y-340900000D02*
G75*
G03X185350000Y-341200000I300000J0D01*
G01*
X115050000Y-340900000D02*
G75*
G03X115350000Y-341200000I300000J0D01*
G01*
X45050000Y-340900000D02*
G75*
G03X45350000Y-341200000I300000J0D01*
G01*
X185050000Y-310900000D02*
G75*
G03X185350000Y-311200000I300000J0D01*
G01*
X115050000Y-310900000D02*
G75*
G03X115350000Y-311200000I300000J0D01*
G01*
X45050000Y-310900000D02*
G75*
G03X45350000Y-311200000I300000J0D01*
G01*
X185050000Y-280900000D02*
G75*
G03X185350000Y-281200000I300000J0D01*
G01*
X115050000Y-280900000D02*
G75*
G03X115350000Y-281200000I300000J0D01*
G01*
X45050000Y-280900000D02*
G75*
G03X45350000Y-281200000I300000J0D01*
G01*
X185050000Y-250900000D02*
G75*
G03X185350000Y-251200000I300000J0D01*
G01*
X115050000Y-250900000D02*
G75*
G03X115350000Y-251200000I300000J0D01*
G01*
X45050000Y-250900000D02*
G75*
G03X45350000Y-251200000I300000J0D01*
G01*
X185050000Y-220900000D02*
G75*
G03X185350000Y-221200000I300000J0D01*
G01*
X115050000Y-220900000D02*
G75*
G03X115350000Y-221200000I300000J0D01*
G01*
X45050000Y-220900000D02*
G75*
G03X45350000Y-221200000I300000J0D01*
G01*
X185050000Y-190900000D02*
G75*
G03X185350000Y-191200000I300000J0D01*
G01*
X115050000Y-190900000D02*
G75*
G03X115350000Y-191200000I300000J0D01*
G01*
X45050000Y-190900000D02*
G75*
G03X45350000Y-191200000I300000J0D01*
G01*
X185050000Y-160900000D02*
G75*
G03X185350000Y-161200000I300000J0D01*
G01*
X115050000Y-160900000D02*
G75*
G03X115350000Y-161200000I300000J0D01*
G01*
X45050000Y-160900000D02*
G75*
G03X45350000Y-161200000I300000J0D01*
G01*
X185050000Y-130900000D02*
G75*
G03X185350000Y-131200000I300000J0D01*
G01*
X115050000Y-130900000D02*
G75*
G03X115350000Y-131200000I300000J0D01*
G01*
X45050000Y-130900000D02*
G75*
G03X45350000Y-131200000I300000J0D01*
G01*
X185050000Y-100900000D02*
G75*
G03X185350000Y-101200000I300000J0D01*
G01*
X115050000Y-100900000D02*
G75*
G03X115350000Y-101200000I300000J0D01*
G01*
X45050000Y-100900000D02*
G75*
G03X45350000Y-101200000I300000J0D01*
G01*
X185050000Y-70900000D02*
G75*
G03X185350000Y-71200000I300000J0D01*
G01*
X115050000Y-70900000D02*
G75*
G03X115350000Y-71200000I300000J0D01*
G01*
X45050000Y-70900000D02*
G75*
G03X45350000Y-71200000I300000J0D01*
G01*
X185050000Y-40900000D02*
G75*
G03X185350000Y-41200000I300000J0D01*
G01*
X115050000Y-40900000D02*
G75*
G03X115350000Y-41200000I300000J0D01*
G01*
X45050000Y-40900000D02*
G75*
G03X45350000Y-41200000I300000J0D01*
G01*
X185050000Y-10900000D02*
G75*
G03X185350000Y-11200000I300000J0D01*
G01*
X115050000Y-10900000D02*
G75*
G03X115350000Y-11200000I300000J0D01*
G01*
X155750000Y-352600000D02*
X148975000Y-352600000D01*
X85750000Y-352600000D02*
X78975000Y-352600000D01*
X15750000Y-352600000D02*
X8975000Y-352600000D01*
X155750000Y-322600000D02*
X148975000Y-322600000D01*
X85750000Y-322600000D02*
X78975000Y-322600000D01*
X15750000Y-322600000D02*
X8975000Y-322600000D01*
X155750000Y-292600000D02*
X148975000Y-292600000D01*
X85750000Y-292600000D02*
X78975000Y-292600000D01*
X15750000Y-292600000D02*
X8975000Y-292600000D01*
X155750000Y-262600000D02*
X148975000Y-262600000D01*
X85750000Y-262600000D02*
X78975000Y-262600000D01*
X15750000Y-262600000D02*
X8975000Y-262600000D01*
X155750000Y-232600000D02*
X148975000Y-232600000D01*
X85750000Y-232600000D02*
X78975000Y-232600000D01*
X15750000Y-232600000D02*
X8975000Y-232600000D01*
X155750000Y-202600000D02*
X148975000Y-202600000D01*
X85750000Y-202600000D02*
X78975000Y-202600000D01*
X15750000Y-202600000D02*
X8975000Y-202600000D01*
X155750000Y-172600000D02*
X148975000Y-172600000D01*
X85750000Y-172600000D02*
X78975000Y-172600000D01*
X15750000Y-172600000D02*
X8975000Y-172600000D01*
X155750000Y-142600000D02*
X148975000Y-142600000D01*
X85750000Y-142600000D02*
X78975000Y-142600000D01*
X15750000Y-142600000D02*
X8975000Y-142600000D01*
X155750000Y-112600000D02*
X148975000Y-112600000D01*
X85750000Y-112600000D02*
X78975000Y-112600000D01*
X15750000Y-112600000D02*
X8975000Y-112600000D01*
X155750000Y-82600000D02*
X148975000Y-82600000D01*
X85750000Y-82600000D02*
X78975000Y-82600000D01*
X15750000Y-82600000D02*
X8975000Y-82600000D01*
X155750000Y-52600000D02*
X148975000Y-52600000D01*
X85750000Y-52600000D02*
X78975000Y-52600000D01*
X15750000Y-52600000D02*
X8975000Y-52600000D01*
X155750000Y-22600000D02*
X148975000Y-22600000D01*
X85750000Y-22600000D02*
X78975000Y-22600000D01*
X156050000Y-352300000D02*
X156050000Y-335900000D01*
X86050000Y-352300000D02*
X86050000Y-335900000D01*
X16050000Y-352300000D02*
X16050000Y-335900000D01*
X156050000Y-322300000D02*
X156050000Y-305900000D01*
X86050000Y-322300000D02*
X86050000Y-305900000D01*
X16050000Y-322300000D02*
X16050000Y-305900000D01*
X156050000Y-292300000D02*
X156050000Y-275900000D01*
X86050000Y-292300000D02*
X86050000Y-275900000D01*
X16050000Y-292300000D02*
X16050000Y-275900000D01*
X156050000Y-262300000D02*
X156050000Y-245900000D01*
X86050000Y-262300000D02*
X86050000Y-245900000D01*
X16050000Y-262300000D02*
X16050000Y-245900000D01*
X156050000Y-232300000D02*
X156050000Y-215900000D01*
X86050000Y-232300000D02*
X86050000Y-215900000D01*
X16050000Y-232300000D02*
X16050000Y-215900000D01*
X156050000Y-202300000D02*
X156050000Y-185900000D01*
X86050000Y-202300000D02*
X86050000Y-185900000D01*
X16050000Y-202300000D02*
X16050000Y-185900000D01*
X156050000Y-172300000D02*
X156050000Y-155900000D01*
X86050000Y-172300000D02*
X86050000Y-155900000D01*
X16050000Y-172300000D02*
X16050000Y-155900000D01*
X156050000Y-142300000D02*
X156050000Y-125900000D01*
X86050000Y-142300000D02*
X86050000Y-125900000D01*
X16050000Y-142300000D02*
X16050000Y-125900000D01*
X156050000Y-112300000D02*
X156050000Y-95900000D01*
X86050000Y-112300000D02*
X86050000Y-95900000D01*
X16050000Y-112300000D02*
X16050000Y-95900000D01*
X156050000Y-82300000D02*
X156050000Y-65900000D01*
X86050000Y-82300000D02*
X86050000Y-65900000D01*
X16050000Y-82300000D02*
X16050000Y-65900000D01*
X156050000Y-52300000D02*
X156050000Y-35900000D01*
X86050000Y-52300000D02*
X86050000Y-35900000D01*
X16050000Y-52300000D02*
X16050000Y-35900000D01*
X156050000Y-22300000D02*
X156050000Y-5900000D01*
X86050000Y-22300000D02*
X86050000Y-5900000D01*
X156055000Y-354995000D02*
G75*
G03X155755000Y-354695000I-300000J0D01*
G01*
X86055000Y-354995000D02*
G75*
G03X85755000Y-354695000I-300000J0D01*
G01*
X16055000Y-354995000D02*
G75*
G03X15755000Y-354695000I-300000J0D01*
G01*
X156055000Y-324995000D02*
G75*
G03X155755000Y-324695000I-300000J0D01*
G01*
X86055000Y-324995000D02*
G75*
G03X85755000Y-324695000I-300000J0D01*
G01*
X16055000Y-324995000D02*
G75*
G03X15755000Y-324695000I-300000J0D01*
G01*
X156055000Y-294995000D02*
G75*
G03X155755000Y-294695000I-300000J0D01*
G01*
X86055000Y-294995000D02*
G75*
G03X85755000Y-294695000I-300000J0D01*
G01*
X16055000Y-294995000D02*
G75*
G03X15755000Y-294695000I-300000J0D01*
G01*
X156055000Y-264995000D02*
G75*
G03X155755000Y-264695000I-300000J0D01*
G01*
X86055000Y-264995000D02*
G75*
G03X85755000Y-264695000I-300000J0D01*
G01*
X16055000Y-264995000D02*
G75*
G03X15755000Y-264695000I-300000J0D01*
G01*
X156055000Y-234995000D02*
G75*
G03X155755000Y-234695000I-300000J0D01*
G01*
X86055000Y-234995000D02*
G75*
G03X85755000Y-234695000I-300000J0D01*
G01*
X16055000Y-234995000D02*
G75*
G03X15755000Y-234695000I-300000J0D01*
G01*
X156055000Y-204995000D02*
G75*
G03X155755000Y-204695000I-300000J0D01*
G01*
X86055000Y-204995000D02*
G75*
G03X85755000Y-204695000I-300000J0D01*
G01*
X16055000Y-204995000D02*
G75*
G03X15755000Y-204695000I-300000J0D01*
G01*
X156055000Y-174995000D02*
G75*
G03X155755000Y-174695000I-300000J0D01*
G01*
X86055000Y-174995000D02*
G75*
G03X85755000Y-174695000I-300000J0D01*
G01*
X16055000Y-174995000D02*
G75*
G03X15755000Y-174695000I-300000J0D01*
G01*
X156055000Y-144995000D02*
G75*
G03X155755000Y-144695000I-300000J0D01*
G01*
X86055000Y-144995000D02*
G75*
G03X85755000Y-144695000I-300000J0D01*
G01*
X16055000Y-144995000D02*
G75*
G03X15755000Y-144695000I-300000J0D01*
G01*
X156055000Y-114995000D02*
G75*
G03X155755000Y-114695000I-300000J0D01*
G01*
X86055000Y-114995000D02*
G75*
G03X85755000Y-114695000I-300000J0D01*
G01*
X16055000Y-114995000D02*
G75*
G03X15755000Y-114695000I-300000J0D01*
G01*
X156055000Y-84995000D02*
G75*
G03X155755000Y-84695000I-300000J0D01*
G01*
X86055000Y-84995000D02*
G75*
G03X85755000Y-84695000I-300000J0D01*
G01*
X16055000Y-84995000D02*
G75*
G03X15755000Y-84695000I-300000J0D01*
G01*
X156055000Y-54995000D02*
G75*
G03X155755000Y-54695000I-300000J0D01*
G01*
X86055000Y-54995000D02*
G75*
G03X85755000Y-54695000I-300000J0D01*
G01*
X16055000Y-54995000D02*
G75*
G03X15755000Y-54695000I-300000J0D01*
G01*
X156055000Y-24995000D02*
G75*
G03X155755000Y-24695000I-300000J0D01*
G01*
X86055000Y-24995000D02*
G75*
G03X85755000Y-24695000I-300000J0D01*
G01*
X205950000Y-337050000D02*
X205950000Y-337050000D01*
X135950000Y-337050000D02*
X135950000Y-337050000D01*
X65950000Y-337050000D02*
X65950000Y-337050000D01*
X205950000Y-307050000D02*
X205950000Y-307050000D01*
X135950000Y-307050000D02*
X135950000Y-307050000D01*
X65950000Y-307050000D02*
X65950000Y-307050000D01*
X205950000Y-277050000D02*
X205950000Y-277050000D01*
X135950000Y-277050000D02*
X135950000Y-277050000D01*
X65950000Y-277050000D02*
X65950000Y-277050000D01*
X205950000Y-247050000D02*
X205950000Y-247050000D01*
X135950000Y-247050000D02*
X135950000Y-247050000D01*
X65950000Y-247050000D02*
X65950000Y-247050000D01*
X205950000Y-217050000D02*
X205950000Y-217050000D01*
X135950000Y-217050000D02*
X135950000Y-217050000D01*
X65950000Y-217050000D02*
X65950000Y-217050000D01*
X205950000Y-187050000D02*
X205950000Y-187050000D01*
X135950000Y-187050000D02*
X135950000Y-187050000D01*
X65950000Y-187050000D02*
X65950000Y-187050000D01*
X205950000Y-157050000D02*
X205950000Y-157050000D01*
X135950000Y-157050000D02*
X135950000Y-157050000D01*
X65950000Y-157050000D02*
X65950000Y-157050000D01*
X205950000Y-127050000D02*
X205950000Y-127050000D01*
X135950000Y-127050000D02*
X135950000Y-127050000D01*
X65950000Y-127050000D02*
X65950000Y-127050000D01*
X205950000Y-97050000D02*
X205950000Y-97050000D01*
X135950000Y-97050000D02*
X135950000Y-97050000D01*
X65950000Y-97050000D02*
X65950000Y-97050000D01*
X205950000Y-67050000D02*
X205950000Y-67050000D01*
X135950000Y-67050000D02*
X135950000Y-67050000D01*
X65950000Y-67050000D02*
X65950000Y-67050000D01*
X205950000Y-37050000D02*
X205950000Y-37050000D01*
X135950000Y-37050000D02*
X135950000Y-37050000D01*
X65950000Y-37050000D02*
X65950000Y-37050000D01*
X205950000Y-7050000D02*
X205950000Y-7050000D01*
X135950000Y-7050000D02*
X135950000Y-7050000D01*
X155750000Y-352600000D02*
G75*
G03X156050000Y-352300000I0J300000D01*
G01*
X85750000Y-352600000D02*
G75*
G03X86050000Y-352300000I0J300000D01*
G01*
X15750000Y-352600000D02*
G75*
G03X16050000Y-352300000I0J300000D01*
G01*
X155750000Y-322600000D02*
G75*
G03X156050000Y-322300000I0J300000D01*
G01*
X85750000Y-322600000D02*
G75*
G03X86050000Y-322300000I0J300000D01*
G01*
X15750000Y-322600000D02*
G75*
G03X16050000Y-322300000I0J300000D01*
G01*
X155750000Y-292600000D02*
G75*
G03X156050000Y-292300000I0J300000D01*
G01*
X85750000Y-292600000D02*
G75*
G03X86050000Y-292300000I0J300000D01*
G01*
X15750000Y-292600000D02*
G75*
G03X16050000Y-292300000I0J300000D01*
G01*
X155750000Y-262600000D02*
G75*
G03X156050000Y-262300000I0J300000D01*
G01*
X85750000Y-262600000D02*
G75*
G03X86050000Y-262300000I0J300000D01*
G01*
X15750000Y-262600000D02*
G75*
G03X16050000Y-262300000I0J300000D01*
G01*
X155750000Y-232600000D02*
G75*
G03X156050000Y-232300000I0J300000D01*
G01*
X85750000Y-232600000D02*
G75*
G03X86050000Y-232300000I0J300000D01*
G01*
X15750000Y-232600000D02*
G75*
G03X16050000Y-232300000I0J300000D01*
G01*
X155750000Y-202600000D02*
G75*
G03X156050000Y-202300000I0J300000D01*
G01*
X85750000Y-202600000D02*
G75*
G03X86050000Y-202300000I0J300000D01*
G01*
X15750000Y-202600000D02*
G75*
G03X16050000Y-202300000I0J300000D01*
G01*
X155750000Y-172600000D02*
G75*
G03X156050000Y-172300000I0J300000D01*
G01*
X85750000Y-172600000D02*
G75*
G03X86050000Y-172300000I0J300000D01*
G01*
X15750000Y-172600000D02*
G75*
G03X16050000Y-172300000I0J300000D01*
G01*
X155750000Y-142600000D02*
G75*
G03X156050000Y-142300000I0J300000D01*
G01*
X85750000Y-142600000D02*
G75*
G03X86050000Y-142300000I0J300000D01*
G01*
X15750000Y-142600000D02*
G75*
G03X16050000Y-142300000I0J300000D01*
G01*
X155750000Y-112600000D02*
G75*
G03X156050000Y-112300000I0J300000D01*
G01*
X85750000Y-112600000D02*
G75*
G03X86050000Y-112300000I0J300000D01*
G01*
X15750000Y-112600000D02*
G75*
G03X16050000Y-112300000I0J300000D01*
G01*
X155750000Y-82600000D02*
G75*
G03X156050000Y-82300000I0J300000D01*
G01*
X85750000Y-82600000D02*
G75*
G03X86050000Y-82300000I0J300000D01*
G01*
X15750000Y-82600000D02*
G75*
G03X16050000Y-82300000I0J300000D01*
G01*
X155750000Y-52600000D02*
G75*
G03X156050000Y-52300000I0J300000D01*
G01*
X85750000Y-52600000D02*
G75*
G03X86050000Y-52300000I0J300000D01*
G01*
X15750000Y-52600000D02*
G75*
G03X16050000Y-52300000I0J300000D01*
G01*
X155750000Y-22600000D02*
G75*
G03X156050000Y-22300000I0J300000D01*
G01*
X85750000Y-22600000D02*
G75*
G03X86050000Y-22300000I0J300000D01*
G01*
X205950000Y-345400000D02*
X205950000Y-337050000D01*
X135950000Y-345400000D02*
X135950000Y-337050000D01*
X65950000Y-345400000D02*
X65950000Y-337050000D01*
X205950000Y-315400000D02*
X205950000Y-307050000D01*
X135950000Y-315400000D02*
X135950000Y-307050000D01*
X65950000Y-315400000D02*
X65950000Y-307050000D01*
X205950000Y-285400000D02*
X205950000Y-277050000D01*
X135950000Y-285400000D02*
X135950000Y-277050000D01*
X65950000Y-285400000D02*
X65950000Y-277050000D01*
X205950000Y-255400000D02*
X205950000Y-247050000D01*
X135950000Y-255400000D02*
X135950000Y-247050000D01*
X65950000Y-255400000D02*
X65950000Y-247050000D01*
X205950000Y-225400000D02*
X205950000Y-217050000D01*
X135950000Y-225400000D02*
X135950000Y-217050000D01*
X65950000Y-225400000D02*
X65950000Y-217050000D01*
X205950000Y-195400000D02*
X205950000Y-187050000D01*
X135950000Y-195400000D02*
X135950000Y-187050000D01*
X65950000Y-195400000D02*
X65950000Y-187050000D01*
X205950000Y-165400000D02*
X205950000Y-157050000D01*
X135950000Y-165400000D02*
X135950000Y-157050000D01*
X65950000Y-165400000D02*
X65950000Y-157050000D01*
X205950000Y-135400000D02*
X205950000Y-127050000D01*
X135950000Y-135400000D02*
X135950000Y-127050000D01*
X65950000Y-135400000D02*
X65950000Y-127050000D01*
X205950000Y-105400000D02*
X205950000Y-97050000D01*
X135950000Y-105400000D02*
X135950000Y-97050000D01*
X65950000Y-105400000D02*
X65950000Y-97050000D01*
X205950000Y-75400000D02*
X205950000Y-67050000D01*
X135950000Y-75400000D02*
X135950000Y-67050000D01*
X65950000Y-75400000D02*
X65950000Y-67050000D01*
X205950000Y-45400000D02*
X205950000Y-37050000D01*
X135950000Y-45400000D02*
X135950000Y-37050000D01*
X65950000Y-45400000D02*
X65950000Y-37050000D01*
X205950000Y-15400000D02*
X205950000Y-7050000D01*
X135950000Y-15400000D02*
X135950000Y-7050000D01*
X205950000Y-337050000D02*
X201200000Y-337050000D01*
X135950000Y-337050000D02*
X131200000Y-337050000D01*
X65950000Y-337050000D02*
X61200000Y-337050000D01*
X205950000Y-307050000D02*
X201200000Y-307050000D01*
X135950000Y-307050000D02*
X131200000Y-307050000D01*
X65950000Y-307050000D02*
X61200000Y-307050000D01*
X205950000Y-277050000D02*
X201200000Y-277050000D01*
X135950000Y-277050000D02*
X131200000Y-277050000D01*
X65950000Y-277050000D02*
X61200000Y-277050000D01*
X205950000Y-247050000D02*
X201200000Y-247050000D01*
X135950000Y-247050000D02*
X131200000Y-247050000D01*
X65950000Y-247050000D02*
X61200000Y-247050000D01*
X205950000Y-217050000D02*
X201200000Y-217050000D01*
X135950000Y-217050000D02*
X131200000Y-217050000D01*
X65950000Y-217050000D02*
X61200000Y-217050000D01*
X205950000Y-187050000D02*
X201200000Y-187050000D01*
X135950000Y-187050000D02*
X131200000Y-187050000D01*
X65950000Y-187050000D02*
X61200000Y-187050000D01*
X205950000Y-157050000D02*
X201200000Y-157050000D01*
X135950000Y-157050000D02*
X131200000Y-157050000D01*
X65950000Y-157050000D02*
X61200000Y-157050000D01*
X205950000Y-127050000D02*
X201200000Y-127050000D01*
X135950000Y-127050000D02*
X131200000Y-127050000D01*
X65950000Y-127050000D02*
X61200000Y-127050000D01*
X205950000Y-97050000D02*
X201200000Y-97050000D01*
X135950000Y-97050000D02*
X131200000Y-97050000D01*
X65950000Y-97050000D02*
X61200000Y-97050000D01*
X205950000Y-67050000D02*
X201200000Y-67050000D01*
X135950000Y-67050000D02*
X131200000Y-67050000D01*
X65950000Y-67050000D02*
X61200000Y-67050000D01*
X205950000Y-37050000D02*
X201200000Y-37050000D01*
X135950000Y-37050000D02*
X131200000Y-37050000D01*
X65950000Y-37050000D02*
X61200000Y-37050000D01*
X205950000Y-7050000D02*
X201200000Y-7050000D01*
X135950000Y-7050000D02*
X131200000Y-7050000D01*
X149075000Y-354695000D02*
X155755000Y-354695000D01*
X79075000Y-354695000D02*
X85755000Y-354695000D01*
X9075000Y-354695000D02*
X15755000Y-354695000D01*
X149075000Y-324695000D02*
X155755000Y-324695000D01*
X79075000Y-324695000D02*
X85755000Y-324695000D01*
X9075000Y-324695000D02*
X15755000Y-324695000D01*
X149075000Y-294695000D02*
X155755000Y-294695000D01*
X79075000Y-294695000D02*
X85755000Y-294695000D01*
X9075000Y-294695000D02*
X15755000Y-294695000D01*
X149075000Y-264695000D02*
X155755000Y-264695000D01*
X79075000Y-264695000D02*
X85755000Y-264695000D01*
X9075000Y-264695000D02*
X15755000Y-264695000D01*
X149075000Y-234695000D02*
X155755000Y-234695000D01*
X79075000Y-234695000D02*
X85755000Y-234695000D01*
X9075000Y-234695000D02*
X15755000Y-234695000D01*
X149075000Y-204695000D02*
X155755000Y-204695000D01*
X79075000Y-204695000D02*
X85755000Y-204695000D01*
X9075000Y-204695000D02*
X15755000Y-204695000D01*
X149075000Y-174695000D02*
X155755000Y-174695000D01*
X79075000Y-174695000D02*
X85755000Y-174695000D01*
X9075000Y-174695000D02*
X15755000Y-174695000D01*
X149075000Y-144695000D02*
X155755000Y-144695000D01*
X79075000Y-144695000D02*
X85755000Y-144695000D01*
X9075000Y-144695000D02*
X15755000Y-144695000D01*
X149075000Y-114695000D02*
X155755000Y-114695000D01*
X79075000Y-114695000D02*
X85755000Y-114695000D01*
X9075000Y-114695000D02*
X15755000Y-114695000D01*
X149075000Y-84695000D02*
X155755000Y-84695000D01*
X79075000Y-84695000D02*
X85755000Y-84695000D01*
X9075000Y-84695000D02*
X15755000Y-84695000D01*
X149075000Y-54695000D02*
X155755000Y-54695000D01*
X79075000Y-54695000D02*
X85755000Y-54695000D01*
X9075000Y-54695000D02*
X15755000Y-54695000D01*
X149075000Y-24695000D02*
X155755000Y-24695000D01*
X79075000Y-24695000D02*
X85755000Y-24695000D01*
X197050000Y-341200000D02*
X201000000Y-337250000D01*
X127050000Y-341200000D02*
X131000000Y-337250000D01*
X57050000Y-341200000D02*
X61000000Y-337250000D01*
X197050000Y-311200000D02*
X201000000Y-307250000D01*
X127050000Y-311200000D02*
X131000000Y-307250000D01*
X57050000Y-311200000D02*
X61000000Y-307250000D01*
X197050000Y-281200000D02*
X201000000Y-277250000D01*
X127050000Y-281200000D02*
X131000000Y-277250000D01*
X57050000Y-281200000D02*
X61000000Y-277250000D01*
X197050000Y-251200000D02*
X201000000Y-247250000D01*
X127050000Y-251200000D02*
X131000000Y-247250000D01*
X57050000Y-251200000D02*
X61000000Y-247250000D01*
X197050000Y-221200000D02*
X201000000Y-217250000D01*
X127050000Y-221200000D02*
X131000000Y-217250000D01*
X57050000Y-221200000D02*
X61000000Y-217250000D01*
X197050000Y-191200000D02*
X201000000Y-187250000D01*
X127050000Y-191200000D02*
X131000000Y-187250000D01*
X57050000Y-191200000D02*
X61000000Y-187250000D01*
X197050000Y-161200000D02*
X201000000Y-157250000D01*
X127050000Y-161200000D02*
X131000000Y-157250000D01*
X57050000Y-161200000D02*
X61000000Y-157250000D01*
X197050000Y-131200000D02*
X201000000Y-127250000D01*
X127050000Y-131200000D02*
X131000000Y-127250000D01*
X57050000Y-131200000D02*
X61000000Y-127250000D01*
X197050000Y-101200000D02*
X201000000Y-97250000D01*
X127050000Y-101200000D02*
X131000000Y-97250000D01*
X57050000Y-101200000D02*
X61000000Y-97250000D01*
X197050000Y-71200000D02*
X201000000Y-67250000D01*
X127050000Y-71200000D02*
X131000000Y-67250000D01*
X57050000Y-71200000D02*
X61000000Y-67250000D01*
X197050000Y-41200000D02*
X201000000Y-37250000D01*
X127050000Y-41200000D02*
X131000000Y-37250000D01*
X57050000Y-41200000D02*
X61000000Y-37250000D01*
X197050000Y-11200000D02*
X201000000Y-7250000D01*
X127050000Y-11200000D02*
X131000000Y-7250000D01*
X201000000Y-337250000D02*
X201200000Y-337050000D01*
X131000000Y-337250000D02*
X131200000Y-337050000D01*
X61000000Y-337250000D02*
X61200000Y-337050000D01*
X201000000Y-307250000D02*
X201200000Y-307050000D01*
X131000000Y-307250000D02*
X131200000Y-307050000D01*
X61000000Y-307250000D02*
X61200000Y-307050000D01*
X201000000Y-277250000D02*
X201200000Y-277050000D01*
X131000000Y-277250000D02*
X131200000Y-277050000D01*
X61000000Y-277250000D02*
X61200000Y-277050000D01*
X201000000Y-247250000D02*
X201200000Y-247050000D01*
X131000000Y-247250000D02*
X131200000Y-247050000D01*
X61000000Y-247250000D02*
X61200000Y-247050000D01*
X201000000Y-217250000D02*
X201200000Y-217050000D01*
X131000000Y-217250000D02*
X131200000Y-217050000D01*
X61000000Y-217250000D02*
X61200000Y-217050000D01*
X201000000Y-187250000D02*
X201200000Y-187050000D01*
X131000000Y-187250000D02*
X131200000Y-187050000D01*
X61000000Y-187250000D02*
X61200000Y-187050000D01*
X201000000Y-157250000D02*
X201200000Y-157050000D01*
X131000000Y-157250000D02*
X131200000Y-157050000D01*
X61000000Y-157250000D02*
X61200000Y-157050000D01*
X201000000Y-127250000D02*
X201200000Y-127050000D01*
X131000000Y-127250000D02*
X131200000Y-127050000D01*
X61000000Y-127250000D02*
X61200000Y-127050000D01*
X201000000Y-97250000D02*
X201200000Y-97050000D01*
X131000000Y-97250000D02*
X131200000Y-97050000D01*
X61000000Y-97250000D02*
X61200000Y-97050000D01*
X201000000Y-67250000D02*
X201200000Y-67050000D01*
X131000000Y-67250000D02*
X131200000Y-67050000D01*
X61000000Y-67250000D02*
X61200000Y-67050000D01*
X201000000Y-37250000D02*
X201200000Y-37050000D01*
X131000000Y-37250000D02*
X131200000Y-37050000D01*
X61000000Y-37250000D02*
X61200000Y-37050000D01*
X201000000Y-7250000D02*
X201200000Y-7050000D01*
X131000000Y-7250000D02*
X131200000Y-7050000D01*
X61000000Y-7250000D02*
X61200000Y-7050000D01*
X65950000Y-7050000D02*
X61200000Y-7050000D01*
X65950000Y-7050000D02*
X65950000Y-7050000D01*
X65950000Y-15400000D02*
X65950000Y-7050000D01*
X57050000Y-11200000D02*
X61000000Y-7250000D01*
X16055000Y-24995000D02*
G75*
G03X15755000Y-24695000I-300000J0D01*
G01*
X9075000Y-24695000D02*
X15755000Y-24695000D01*
X16055000Y-27295000D02*
X16055000Y-24995000D01*
X15750000Y-22600000D02*
G75*
G03X16050000Y-22300000I0J300000D01*
G01*
X16050000Y-22300000D02*
X16050000Y-5900000D01*
X15750000Y-22600000D02*
X8975000Y-22600000D01*
X45050000Y-10900000D02*
G75*
G03X45350000Y-11200000I300000J0D01*
G01*
X57050000Y-11200000D02*
X45350000Y-11200000D01*
X45050000Y-5900000D02*
X45050000Y-10900000D01*
X45350000Y-25000000D02*
G75*
G03X45050000Y-25300000I0J-300000D01*
G01*
X45050000Y-27300000D02*
X45050000Y-25300000D01*
X55050000Y-25000000D02*
X45350000Y-25000000D01*
X58250000Y-28200000D02*
X55050000Y-25000000D01*
X65950000Y-28200000D02*
X58250000Y-28200000D01*
X65950000Y-15400000D02*
X65950000Y-28200000D01*
X7175000Y-26600000D02*
X9075000Y-24700000D01*
X1775000Y-26600000D02*
X7175000Y-26600000D01*
X1775000Y-25300000D02*
X1775000Y-26600000D01*
X1775000Y-20600000D02*
X1775000Y-25300000D01*
X6975000Y-20600000D02*
X1775000Y-20600000D01*
X8975000Y-22600000D02*
X6975000Y-20600000D01*
X16350000Y-5600000D02*
G75*
G03X16050000Y-5900000I0J-300000D01*
G01*
X16050000Y-27300000D02*
G75*
G03X16350000Y-27600000I300000J0D01*
G01*
X16350000Y-27600000D02*
X44750000Y-27600000D01*
X16350000Y-5600000D02*
X44750000Y-5600000D01*
X44750000Y-27600000D02*
G75*
G03X45050000Y-27300000I0J300000D01*
G01*
X45050000Y-5900000D02*
G75*
G03X44750000Y-5600000I-300000J0D01*
G01*
D11*
G36*
X205229900Y-357464400D02*
X202489900Y-357464400D01*
X202489900Y-356264400D01*
X205229900Y-356264400D01*
X205229900Y-357464400D01*
X205229900Y-357464400D01*
G37*
G36*
X65229900Y-357464400D02*
X62489900Y-357464400D01*
X62489900Y-356264400D01*
X65229900Y-356264400D01*
X65229900Y-357464400D01*
X65229900Y-357464400D01*
G37*
G36*
X135229900Y-357464400D02*
X132489900Y-357464400D01*
X132489900Y-356264400D01*
X135229900Y-356264400D01*
X135229900Y-357464400D01*
X135229900Y-357464400D01*
G37*
G36*
X65229900Y-354924400D02*
X62489900Y-354924400D01*
X62489900Y-353724400D01*
X65229900Y-353724400D01*
X65229900Y-354924400D01*
X65229900Y-354924400D01*
G37*
G36*
X205229900Y-354924400D02*
X202489900Y-354924400D01*
X202489900Y-353724400D01*
X205229900Y-353724400D01*
X205229900Y-354924400D01*
X205229900Y-354924400D01*
G37*
G36*
X135229900Y-354924400D02*
X132489900Y-354924400D01*
X132489900Y-353724400D01*
X135229900Y-353724400D01*
X135229900Y-354924400D01*
X135229900Y-354924400D01*
G37*
G36*
X205229900Y-352384400D02*
X202489900Y-352384400D01*
X202489900Y-351184400D01*
X205229900Y-351184400D01*
X205229900Y-352384400D01*
X205229900Y-352384400D01*
G37*
G36*
X135229900Y-352384400D02*
X132489900Y-352384400D01*
X132489900Y-351184400D01*
X135229900Y-351184400D01*
X135229900Y-352384400D01*
X135229900Y-352384400D01*
G37*
G36*
X65229900Y-352384400D02*
X62489900Y-352384400D01*
X62489900Y-351184400D01*
X65229900Y-351184400D01*
X65229900Y-352384400D01*
X65229900Y-352384400D01*
G37*
G36*
X205229900Y-349844400D02*
X202489900Y-349844400D01*
X202489900Y-348644400D01*
X205229900Y-348644400D01*
X205229900Y-349844400D01*
X205229900Y-349844400D01*
G37*
G36*
X135229900Y-349844400D02*
X132489900Y-349844400D01*
X132489900Y-348644400D01*
X135229900Y-348644400D01*
X135229900Y-349844400D01*
X135229900Y-349844400D01*
G37*
G36*
X65229900Y-349844400D02*
X62489900Y-349844400D01*
X62489900Y-348644400D01*
X65229900Y-348644400D01*
X65229900Y-349844400D01*
X65229900Y-349844400D01*
G37*
G36*
X65229900Y-347304400D02*
X62489900Y-347304400D01*
X62489900Y-346104400D01*
X65229900Y-346104400D01*
X65229900Y-347304400D01*
X65229900Y-347304400D01*
G37*
G36*
X135229900Y-347304400D02*
X132489900Y-347304400D01*
X132489900Y-346104400D01*
X135229900Y-346104400D01*
X135229900Y-347304400D01*
X135229900Y-347304400D01*
G37*
G36*
X205229900Y-347304400D02*
X202489900Y-347304400D01*
X202489900Y-346104400D01*
X205229900Y-346104400D01*
X205229900Y-347304400D01*
X205229900Y-347304400D01*
G37*
G36*
X92286336Y-335758290D02*
X96284970Y-335761955D01*
X88229455Y-343817470D01*
X88222125Y-335820350D01*
X88287850Y-335754625D01*
X88287851Y-335754625D01*
X92286336Y-335758290D01*
X92286336Y-335758290D01*
G37*
G36*
X22286336Y-335758290D02*
X26284970Y-335761955D01*
X18229455Y-343817470D01*
X18222125Y-335820350D01*
X18287850Y-335754625D01*
X18287851Y-335754625D01*
X22286336Y-335758290D01*
X22286336Y-335758290D01*
G37*
G36*
X162286336Y-335758290D02*
X166284970Y-335761955D01*
X158229455Y-343817470D01*
X158222125Y-335820350D01*
X158287850Y-335754625D01*
X158287851Y-335754625D01*
X162286336Y-335758290D01*
X162286336Y-335758290D01*
G37*
G36*
X42822241Y-335752516D02*
X42748939Y-343683663D01*
X42748939Y-343683664D01*
X34761036Y-335695761D01*
X34833008Y-335695096D01*
X42692184Y-335622459D01*
X42822241Y-335752516D01*
X42822241Y-335752516D01*
G37*
G36*
X112822241Y-335752516D02*
X112748939Y-343683663D01*
X112748939Y-343683664D01*
X104761036Y-335695761D01*
X104833008Y-335695096D01*
X112692184Y-335622459D01*
X112822241Y-335752516D01*
X112822241Y-335752516D01*
G37*
G36*
X182822241Y-335752516D02*
X182748939Y-343683663D01*
X182748939Y-343683664D01*
X174761036Y-335695761D01*
X174833008Y-335695096D01*
X182692184Y-335622459D01*
X182822241Y-335752516D01*
X182822241Y-335752516D01*
G37*
G36*
X205229900Y-327464400D02*
X202489900Y-327464400D01*
X202489900Y-326264400D01*
X205229900Y-326264400D01*
X205229900Y-327464400D01*
X205229900Y-327464400D01*
G37*
G36*
X65229900Y-327464400D02*
X62489900Y-327464400D01*
X62489900Y-326264400D01*
X65229900Y-326264400D01*
X65229900Y-327464400D01*
X65229900Y-327464400D01*
G37*
G36*
X135229900Y-327464400D02*
X132489900Y-327464400D01*
X132489900Y-326264400D01*
X135229900Y-326264400D01*
X135229900Y-327464400D01*
X135229900Y-327464400D01*
G37*
G36*
X65229900Y-324924400D02*
X62489900Y-324924400D01*
X62489900Y-323724400D01*
X65229900Y-323724400D01*
X65229900Y-324924400D01*
X65229900Y-324924400D01*
G37*
G36*
X135229900Y-324924400D02*
X132489900Y-324924400D01*
X132489900Y-323724400D01*
X135229900Y-323724400D01*
X135229900Y-324924400D01*
X135229900Y-324924400D01*
G37*
G36*
X205229900Y-324924400D02*
X202489900Y-324924400D01*
X202489900Y-323724400D01*
X205229900Y-323724400D01*
X205229900Y-324924400D01*
X205229900Y-324924400D01*
G37*
G36*
X205229900Y-322384400D02*
X202489900Y-322384400D01*
X202489900Y-321184400D01*
X205229900Y-321184400D01*
X205229900Y-322384400D01*
X205229900Y-322384400D01*
G37*
G36*
X65229900Y-322384400D02*
X62489900Y-322384400D01*
X62489900Y-321184400D01*
X65229900Y-321184400D01*
X65229900Y-322384400D01*
X65229900Y-322384400D01*
G37*
G36*
X135229900Y-322384400D02*
X132489900Y-322384400D01*
X132489900Y-321184400D01*
X135229900Y-321184400D01*
X135229900Y-322384400D01*
X135229900Y-322384400D01*
G37*
G36*
X135229900Y-319844400D02*
X132489900Y-319844400D01*
X132489900Y-318644400D01*
X135229900Y-318644400D01*
X135229900Y-319844400D01*
X135229900Y-319844400D01*
G37*
G36*
X65229900Y-319844400D02*
X62489900Y-319844400D01*
X62489900Y-318644400D01*
X65229900Y-318644400D01*
X65229900Y-319844400D01*
X65229900Y-319844400D01*
G37*
G36*
X205229900Y-319844400D02*
X202489900Y-319844400D01*
X202489900Y-318644400D01*
X205229900Y-318644400D01*
X205229900Y-319844400D01*
X205229900Y-319844400D01*
G37*
G36*
X135229900Y-317304400D02*
X132489900Y-317304400D01*
X132489900Y-316104400D01*
X135229900Y-316104400D01*
X135229900Y-317304400D01*
X135229900Y-317304400D01*
G37*
G36*
X65229900Y-317304400D02*
X62489900Y-317304400D01*
X62489900Y-316104400D01*
X65229900Y-316104400D01*
X65229900Y-317304400D01*
X65229900Y-317304400D01*
G37*
G36*
X205229900Y-317304400D02*
X202489900Y-317304400D01*
X202489900Y-316104400D01*
X205229900Y-316104400D01*
X205229900Y-317304400D01*
X205229900Y-317304400D01*
G37*
G36*
X22286354Y-305758290D02*
X26284970Y-305761955D01*
X18229455Y-313817470D01*
X18222125Y-305820350D01*
X18287850Y-305754625D01*
X18287851Y-305754625D01*
X22286354Y-305758290D01*
X22286354Y-305758290D01*
G37*
G36*
X92286354Y-305758290D02*
X96284970Y-305761955D01*
X88229455Y-313817470D01*
X88222125Y-305820350D01*
X88287850Y-305754625D01*
X88287851Y-305754625D01*
X92286354Y-305758290D01*
X92286354Y-305758290D01*
G37*
G36*
X162286354Y-305758290D02*
X166284970Y-305761955D01*
X158229455Y-313817470D01*
X158222125Y-305820350D01*
X158287850Y-305754625D01*
X158287851Y-305754625D01*
X162286354Y-305758290D01*
X162286354Y-305758290D01*
G37*
G36*
X182822241Y-305752516D02*
X182748939Y-313683663D01*
X182748939Y-313683664D01*
X174761036Y-305695761D01*
X174833008Y-305695096D01*
X182692184Y-305622459D01*
X182822241Y-305752516D01*
X182822241Y-305752516D01*
G37*
G36*
X112822241Y-305752516D02*
X112748939Y-313683663D01*
X112748939Y-313683664D01*
X104761036Y-305695761D01*
X104833008Y-305695096D01*
X112692184Y-305622459D01*
X112822241Y-305752516D01*
X112822241Y-305752516D01*
G37*
G36*
X42822241Y-305752516D02*
X42748939Y-313683663D01*
X42748939Y-313683664D01*
X34761036Y-305695761D01*
X34833008Y-305695096D01*
X42692184Y-305622459D01*
X42822241Y-305752516D01*
X42822241Y-305752516D01*
G37*
G36*
X65229900Y-297464400D02*
X62489900Y-297464400D01*
X62489900Y-296264400D01*
X65229900Y-296264400D01*
X65229900Y-297464400D01*
X65229900Y-297464400D01*
G37*
G36*
X205229900Y-297464400D02*
X202489900Y-297464400D01*
X202489900Y-296264400D01*
X205229900Y-296264400D01*
X205229900Y-297464400D01*
X205229900Y-297464400D01*
G37*
G36*
X135229900Y-297464400D02*
X132489900Y-297464400D01*
X132489900Y-296264400D01*
X135229900Y-296264400D01*
X135229900Y-297464400D01*
X135229900Y-297464400D01*
G37*
G36*
X65229900Y-294924400D02*
X62489900Y-294924400D01*
X62489900Y-293724400D01*
X65229900Y-293724400D01*
X65229900Y-294924400D01*
X65229900Y-294924400D01*
G37*
G36*
X205229900Y-294924400D02*
X202489900Y-294924400D01*
X202489900Y-293724400D01*
X205229900Y-293724400D01*
X205229900Y-294924400D01*
X205229900Y-294924400D01*
G37*
G36*
X135229900Y-294924400D02*
X132489900Y-294924400D01*
X132489900Y-293724400D01*
X135229900Y-293724400D01*
X135229900Y-294924400D01*
X135229900Y-294924400D01*
G37*
G36*
X205229900Y-292384400D02*
X202489900Y-292384400D01*
X202489900Y-291184400D01*
X205229900Y-291184400D01*
X205229900Y-292384400D01*
X205229900Y-292384400D01*
G37*
G36*
X135229900Y-292384400D02*
X132489900Y-292384400D01*
X132489900Y-291184400D01*
X135229900Y-291184400D01*
X135229900Y-292384400D01*
X135229900Y-292384400D01*
G37*
G36*
X65229900Y-292384400D02*
X62489900Y-292384400D01*
X62489900Y-291184400D01*
X65229900Y-291184400D01*
X65229900Y-292384400D01*
X65229900Y-292384400D01*
G37*
G36*
X205229900Y-289844400D02*
X202489900Y-289844400D01*
X202489900Y-288644400D01*
X205229900Y-288644400D01*
X205229900Y-289844400D01*
X205229900Y-289844400D01*
G37*
G36*
X135229900Y-289844400D02*
X132489900Y-289844400D01*
X132489900Y-288644400D01*
X135229900Y-288644400D01*
X135229900Y-289844400D01*
X135229900Y-289844400D01*
G37*
G36*
X65229900Y-289844400D02*
X62489900Y-289844400D01*
X62489900Y-288644400D01*
X65229900Y-288644400D01*
X65229900Y-289844400D01*
X65229900Y-289844400D01*
G37*
G36*
X65229900Y-287304400D02*
X62489900Y-287304400D01*
X62489900Y-286104400D01*
X65229900Y-286104400D01*
X65229900Y-287304400D01*
X65229900Y-287304400D01*
G37*
G36*
X205229900Y-287304400D02*
X202489900Y-287304400D01*
X202489900Y-286104400D01*
X205229900Y-286104400D01*
X205229900Y-287304400D01*
X205229900Y-287304400D01*
G37*
G36*
X135229900Y-287304400D02*
X132489900Y-287304400D01*
X132489900Y-286104400D01*
X135229900Y-286104400D01*
X135229900Y-287304400D01*
X135229900Y-287304400D01*
G37*
G36*
X162286616Y-275758290D02*
X166284970Y-275761955D01*
X158229455Y-283817470D01*
X158222125Y-275820350D01*
X158287850Y-275754625D01*
X158287851Y-275754625D01*
X162286616Y-275758290D01*
X162286616Y-275758290D01*
G37*
G36*
X22286616Y-275758290D02*
X26284970Y-275761955D01*
X18229455Y-283817470D01*
X18222125Y-275820350D01*
X18287850Y-275754625D01*
X18287851Y-275754625D01*
X22286616Y-275758290D01*
X22286616Y-275758290D01*
G37*
G36*
X92286616Y-275758290D02*
X96284970Y-275761955D01*
X88229455Y-283817470D01*
X88222125Y-275820350D01*
X88287850Y-275754625D01*
X88287851Y-275754625D01*
X92286616Y-275758290D01*
X92286616Y-275758290D01*
G37*
G36*
X182822241Y-275752516D02*
X182748939Y-283683663D01*
X182748939Y-283683664D01*
X174761036Y-275695761D01*
X174833008Y-275695096D01*
X182692184Y-275622459D01*
X182822241Y-275752516D01*
X182822241Y-275752516D01*
G37*
G36*
X112822241Y-275752516D02*
X112748939Y-283683663D01*
X112748939Y-283683664D01*
X104761036Y-275695761D01*
X104833008Y-275695096D01*
X112692184Y-275622459D01*
X112822241Y-275752516D01*
X112822241Y-275752516D01*
G37*
G36*
X42822241Y-275752516D02*
X42748939Y-283683663D01*
X42748939Y-283683664D01*
X34761036Y-275695761D01*
X34833008Y-275695096D01*
X42692184Y-275622459D01*
X42822241Y-275752516D01*
X42822241Y-275752516D01*
G37*
G36*
X65229900Y-267464400D02*
X62489900Y-267464400D01*
X62489900Y-266264400D01*
X65229900Y-266264400D01*
X65229900Y-267464400D01*
X65229900Y-267464400D01*
G37*
G36*
X135229900Y-267464400D02*
X132489900Y-267464400D01*
X132489900Y-266264400D01*
X135229900Y-266264400D01*
X135229900Y-267464400D01*
X135229900Y-267464400D01*
G37*
G36*
X205229900Y-267464400D02*
X202489900Y-267464400D01*
X202489900Y-266264400D01*
X205229900Y-266264400D01*
X205229900Y-267464400D01*
X205229900Y-267464400D01*
G37*
G36*
X65229900Y-264924400D02*
X62489900Y-264924400D01*
X62489900Y-263724400D01*
X65229900Y-263724400D01*
X65229900Y-264924400D01*
X65229900Y-264924400D01*
G37*
G36*
X135229900Y-264924400D02*
X132489900Y-264924400D01*
X132489900Y-263724400D01*
X135229900Y-263724400D01*
X135229900Y-264924400D01*
X135229900Y-264924400D01*
G37*
G36*
X205229900Y-264924400D02*
X202489900Y-264924400D01*
X202489900Y-263724400D01*
X205229900Y-263724400D01*
X205229900Y-264924400D01*
X205229900Y-264924400D01*
G37*
G36*
X205229900Y-262384400D02*
X202489900Y-262384400D01*
X202489900Y-261184400D01*
X205229900Y-261184400D01*
X205229900Y-262384400D01*
X205229900Y-262384400D01*
G37*
G36*
X135229900Y-262384400D02*
X132489900Y-262384400D01*
X132489900Y-261184400D01*
X135229900Y-261184400D01*
X135229900Y-262384400D01*
X135229900Y-262384400D01*
G37*
G36*
X65229900Y-262384400D02*
X62489900Y-262384400D01*
X62489900Y-261184400D01*
X65229900Y-261184400D01*
X65229900Y-262384400D01*
X65229900Y-262384400D01*
G37*
G36*
X65229900Y-259844400D02*
X62489900Y-259844400D01*
X62489900Y-258644400D01*
X65229900Y-258644400D01*
X65229900Y-259844400D01*
X65229900Y-259844400D01*
G37*
G36*
X135229900Y-259844400D02*
X132489900Y-259844400D01*
X132489900Y-258644400D01*
X135229900Y-258644400D01*
X135229900Y-259844400D01*
X135229900Y-259844400D01*
G37*
G36*
X205229900Y-259844400D02*
X202489900Y-259844400D01*
X202489900Y-258644400D01*
X205229900Y-258644400D01*
X205229900Y-259844400D01*
X205229900Y-259844400D01*
G37*
G36*
X205229900Y-257304400D02*
X202489900Y-257304400D01*
X202489900Y-256104400D01*
X205229900Y-256104400D01*
X205229900Y-257304400D01*
X205229900Y-257304400D01*
G37*
G36*
X135229900Y-257304400D02*
X132489900Y-257304400D01*
X132489900Y-256104400D01*
X135229900Y-256104400D01*
X135229900Y-257304400D01*
X135229900Y-257304400D01*
G37*
G36*
X65229900Y-257304400D02*
X62489900Y-257304400D01*
X62489900Y-256104400D01*
X65229900Y-256104400D01*
X65229900Y-257304400D01*
X65229900Y-257304400D01*
G37*
G36*
X162286390Y-245758290D02*
X166284970Y-245761955D01*
X158229455Y-253817470D01*
X158222125Y-245820350D01*
X158287850Y-245754625D01*
X158287851Y-245754625D01*
X162286390Y-245758290D01*
X162286390Y-245758290D01*
G37*
G36*
X92286390Y-245758290D02*
X96284970Y-245761955D01*
X88229455Y-253817470D01*
X88222125Y-245820350D01*
X88287850Y-245754625D01*
X88287851Y-245754625D01*
X92286390Y-245758290D01*
X92286390Y-245758290D01*
G37*
G36*
X22286390Y-245758290D02*
X26284970Y-245761955D01*
X18229455Y-253817470D01*
X18222125Y-245820350D01*
X18287850Y-245754625D01*
X18287851Y-245754625D01*
X22286390Y-245758290D01*
X22286390Y-245758290D01*
G37*
G36*
X42822241Y-245752516D02*
X42748939Y-253683663D01*
X42748939Y-253683664D01*
X34761036Y-245695761D01*
X34833008Y-245695096D01*
X42692184Y-245622459D01*
X42822241Y-245752516D01*
X42822241Y-245752516D01*
G37*
G36*
X182822241Y-245752516D02*
X182748939Y-253683663D01*
X182748939Y-253683664D01*
X174761036Y-245695761D01*
X174833008Y-245695096D01*
X182692184Y-245622459D01*
X182822241Y-245752516D01*
X182822241Y-245752516D01*
G37*
G36*
X112822241Y-245752516D02*
X112748939Y-253683663D01*
X112748939Y-253683664D01*
X104761036Y-245695761D01*
X104833008Y-245695096D01*
X112692184Y-245622459D01*
X112822241Y-245752516D01*
X112822241Y-245752516D01*
G37*
G36*
X65229900Y-237464400D02*
X62489900Y-237464400D01*
X62489900Y-236264400D01*
X65229900Y-236264400D01*
X65229900Y-237464400D01*
X65229900Y-237464400D01*
G37*
G36*
X135229900Y-237464400D02*
X132489900Y-237464400D01*
X132489900Y-236264400D01*
X135229900Y-236264400D01*
X135229900Y-237464400D01*
X135229900Y-237464400D01*
G37*
G36*
X205229900Y-237464400D02*
X202489900Y-237464400D01*
X202489900Y-236264400D01*
X205229900Y-236264400D01*
X205229900Y-237464400D01*
X205229900Y-237464400D01*
G37*
G36*
X205229900Y-234924400D02*
X202489900Y-234924400D01*
X202489900Y-233724400D01*
X205229900Y-233724400D01*
X205229900Y-234924400D01*
X205229900Y-234924400D01*
G37*
G36*
X65229900Y-234924400D02*
X62489900Y-234924400D01*
X62489900Y-233724400D01*
X65229900Y-233724400D01*
X65229900Y-234924400D01*
X65229900Y-234924400D01*
G37*
G36*
X135229900Y-234924400D02*
X132489900Y-234924400D01*
X132489900Y-233724400D01*
X135229900Y-233724400D01*
X135229900Y-234924400D01*
X135229900Y-234924400D01*
G37*
G36*
X205229900Y-232384400D02*
X202489900Y-232384400D01*
X202489900Y-231184400D01*
X205229900Y-231184400D01*
X205229900Y-232384400D01*
X205229900Y-232384400D01*
G37*
G36*
X65229900Y-232384400D02*
X62489900Y-232384400D01*
X62489900Y-231184400D01*
X65229900Y-231184400D01*
X65229900Y-232384400D01*
X65229900Y-232384400D01*
G37*
G36*
X135229900Y-232384400D02*
X132489900Y-232384400D01*
X132489900Y-231184400D01*
X135229900Y-231184400D01*
X135229900Y-232384400D01*
X135229900Y-232384400D01*
G37*
G36*
X135229900Y-229844400D02*
X132489900Y-229844400D01*
X132489900Y-228644400D01*
X135229900Y-228644400D01*
X135229900Y-229844400D01*
X135229900Y-229844400D01*
G37*
G36*
X205229900Y-229844400D02*
X202489900Y-229844400D01*
X202489900Y-228644400D01*
X205229900Y-228644400D01*
X205229900Y-229844400D01*
X205229900Y-229844400D01*
G37*
G36*
X65229900Y-229844400D02*
X62489900Y-229844400D01*
X62489900Y-228644400D01*
X65229900Y-228644400D01*
X65229900Y-229844400D01*
X65229900Y-229844400D01*
G37*
G36*
X65229900Y-227304400D02*
X62489900Y-227304400D01*
X62489900Y-226104400D01*
X65229900Y-226104400D01*
X65229900Y-227304400D01*
X65229900Y-227304400D01*
G37*
G36*
X135229900Y-227304400D02*
X132489900Y-227304400D01*
X132489900Y-226104400D01*
X135229900Y-226104400D01*
X135229900Y-227304400D01*
X135229900Y-227304400D01*
G37*
G36*
X205229900Y-227304400D02*
X202489900Y-227304400D01*
X202489900Y-226104400D01*
X205229900Y-226104400D01*
X205229900Y-227304400D01*
X205229900Y-227304400D01*
G37*
G36*
X162286408Y-215758290D02*
X166284970Y-215761955D01*
X158229455Y-223817470D01*
X158222125Y-215820350D01*
X158287850Y-215754625D01*
X158287851Y-215754625D01*
X162286408Y-215758290D01*
X162286408Y-215758290D01*
G37*
G36*
X92286408Y-215758290D02*
X96284970Y-215761955D01*
X88229455Y-223817470D01*
X88222125Y-215820350D01*
X88287850Y-215754625D01*
X88287851Y-215754625D01*
X92286408Y-215758290D01*
X92286408Y-215758290D01*
G37*
G36*
X22286408Y-215758290D02*
X26284970Y-215761955D01*
X18229455Y-223817470D01*
X18222125Y-215820350D01*
X18287850Y-215754625D01*
X18287851Y-215754625D01*
X22286408Y-215758290D01*
X22286408Y-215758290D01*
G37*
G36*
X182822241Y-215752516D02*
X182748939Y-223683663D01*
X182748939Y-223683664D01*
X174761036Y-215695761D01*
X174833008Y-215695096D01*
X182692184Y-215622459D01*
X182822241Y-215752516D01*
X182822241Y-215752516D01*
G37*
G36*
X112822241Y-215752516D02*
X112748939Y-223683663D01*
X112748939Y-223683664D01*
X104761036Y-215695761D01*
X104833008Y-215695096D01*
X112692184Y-215622459D01*
X112822241Y-215752516D01*
X112822241Y-215752516D01*
G37*
G36*
X42822241Y-215752516D02*
X42748939Y-223683663D01*
X42748939Y-223683664D01*
X34761036Y-215695761D01*
X34833008Y-215695096D01*
X42692184Y-215622459D01*
X42822241Y-215752516D01*
X42822241Y-215752516D01*
G37*
G36*
X135229900Y-207464400D02*
X132489900Y-207464400D01*
X132489900Y-206264400D01*
X135229900Y-206264400D01*
X135229900Y-207464400D01*
X135229900Y-207464400D01*
G37*
G36*
X205229900Y-207464400D02*
X202489900Y-207464400D01*
X202489900Y-206264400D01*
X205229900Y-206264400D01*
X205229900Y-207464400D01*
X205229900Y-207464400D01*
G37*
G36*
X65229900Y-207464400D02*
X62489900Y-207464400D01*
X62489900Y-206264400D01*
X65229900Y-206264400D01*
X65229900Y-207464400D01*
X65229900Y-207464400D01*
G37*
G36*
X135229900Y-204924400D02*
X132489900Y-204924400D01*
X132489900Y-203724400D01*
X135229900Y-203724400D01*
X135229900Y-204924400D01*
X135229900Y-204924400D01*
G37*
G36*
X205229900Y-204924400D02*
X202489900Y-204924400D01*
X202489900Y-203724400D01*
X205229900Y-203724400D01*
X205229900Y-204924400D01*
X205229900Y-204924400D01*
G37*
G36*
X65229900Y-204924400D02*
X62489900Y-204924400D01*
X62489900Y-203724400D01*
X65229900Y-203724400D01*
X65229900Y-204924400D01*
X65229900Y-204924400D01*
G37*
G36*
X65229900Y-202384400D02*
X62489900Y-202384400D01*
X62489900Y-201184400D01*
X65229900Y-201184400D01*
X65229900Y-202384400D01*
X65229900Y-202384400D01*
G37*
G36*
X205229900Y-202384400D02*
X202489900Y-202384400D01*
X202489900Y-201184400D01*
X205229900Y-201184400D01*
X205229900Y-202384400D01*
X205229900Y-202384400D01*
G37*
G36*
X135229900Y-202384400D02*
X132489900Y-202384400D01*
X132489900Y-201184400D01*
X135229900Y-201184400D01*
X135229900Y-202384400D01*
X135229900Y-202384400D01*
G37*
G36*
X135229900Y-199844400D02*
X132489900Y-199844400D01*
X132489900Y-198644400D01*
X135229900Y-198644400D01*
X135229900Y-199844400D01*
X135229900Y-199844400D01*
G37*
G36*
X205229900Y-199844400D02*
X202489900Y-199844400D01*
X202489900Y-198644400D01*
X205229900Y-198644400D01*
X205229900Y-199844400D01*
X205229900Y-199844400D01*
G37*
G36*
X65229900Y-199844400D02*
X62489900Y-199844400D01*
X62489900Y-198644400D01*
X65229900Y-198644400D01*
X65229900Y-199844400D01*
X65229900Y-199844400D01*
G37*
G36*
X205229900Y-197304400D02*
X202489900Y-197304400D01*
X202489900Y-196104400D01*
X205229900Y-196104400D01*
X205229900Y-197304400D01*
X205229900Y-197304400D01*
G37*
G36*
X135229900Y-197304400D02*
X132489900Y-197304400D01*
X132489900Y-196104400D01*
X135229900Y-196104400D01*
X135229900Y-197304400D01*
X135229900Y-197304400D01*
G37*
G36*
X65229900Y-197304400D02*
X62489900Y-197304400D01*
X62489900Y-196104400D01*
X65229900Y-196104400D01*
X65229900Y-197304400D01*
X65229900Y-197304400D01*
G37*
G36*
X92286305Y-185758290D02*
X96284970Y-185761955D01*
X88229455Y-193817470D01*
X88222125Y-185820350D01*
X88287850Y-185754625D01*
X88287851Y-185754625D01*
X92286305Y-185758290D01*
X92286305Y-185758290D01*
G37*
G36*
X162286305Y-185758290D02*
X166284970Y-185761955D01*
X158229455Y-193817470D01*
X158222125Y-185820350D01*
X158287850Y-185754625D01*
X158287851Y-185754625D01*
X162286305Y-185758290D01*
X162286305Y-185758290D01*
G37*
G36*
X22286305Y-185758290D02*
X26284970Y-185761955D01*
X18229455Y-193817470D01*
X18222125Y-185820350D01*
X18287850Y-185754625D01*
X18287851Y-185754625D01*
X22286305Y-185758290D01*
X22286305Y-185758290D01*
G37*
G36*
X182822241Y-185752516D02*
X182748939Y-193683663D01*
X182748939Y-193683664D01*
X174761036Y-185695761D01*
X174833008Y-185695096D01*
X182692184Y-185622459D01*
X182822241Y-185752516D01*
X182822241Y-185752516D01*
G37*
G36*
X42822241Y-185752516D02*
X42748939Y-193683663D01*
X42748939Y-193683664D01*
X34761036Y-185695761D01*
X34833008Y-185695096D01*
X42692184Y-185622459D01*
X42822241Y-185752516D01*
X42822241Y-185752516D01*
G37*
G36*
X112822241Y-185752516D02*
X112748939Y-193683663D01*
X112748939Y-193683664D01*
X104761036Y-185695761D01*
X104833008Y-185695096D01*
X112692184Y-185622459D01*
X112822241Y-185752516D01*
X112822241Y-185752516D01*
G37*
G36*
X205229900Y-177464400D02*
X202489900Y-177464400D01*
X202489900Y-176264400D01*
X205229900Y-176264400D01*
X205229900Y-177464400D01*
X205229900Y-177464400D01*
G37*
G36*
X135229900Y-177464400D02*
X132489900Y-177464400D01*
X132489900Y-176264400D01*
X135229900Y-176264400D01*
X135229900Y-177464400D01*
X135229900Y-177464400D01*
G37*
G36*
X65229900Y-177464400D02*
X62489900Y-177464400D01*
X62489900Y-176264400D01*
X65229900Y-176264400D01*
X65229900Y-177464400D01*
X65229900Y-177464400D01*
G37*
G36*
X65229900Y-174924400D02*
X62489900Y-174924400D01*
X62489900Y-173724400D01*
X65229900Y-173724400D01*
X65229900Y-174924400D01*
X65229900Y-174924400D01*
G37*
G36*
X135229900Y-174924400D02*
X132489900Y-174924400D01*
X132489900Y-173724400D01*
X135229900Y-173724400D01*
X135229900Y-174924400D01*
X135229900Y-174924400D01*
G37*
G36*
X205229900Y-174924400D02*
X202489900Y-174924400D01*
X202489900Y-173724400D01*
X205229900Y-173724400D01*
X205229900Y-174924400D01*
X205229900Y-174924400D01*
G37*
G36*
X205229900Y-172384400D02*
X202489900Y-172384400D01*
X202489900Y-171184400D01*
X205229900Y-171184400D01*
X205229900Y-172384400D01*
X205229900Y-172384400D01*
G37*
G36*
X135229900Y-172384400D02*
X132489900Y-172384400D01*
X132489900Y-171184400D01*
X135229900Y-171184400D01*
X135229900Y-172384400D01*
X135229900Y-172384400D01*
G37*
G36*
X65229900Y-172384400D02*
X62489900Y-172384400D01*
X62489900Y-171184400D01*
X65229900Y-171184400D01*
X65229900Y-172384400D01*
X65229900Y-172384400D01*
G37*
G36*
X65229900Y-169844400D02*
X62489900Y-169844400D01*
X62489900Y-168644400D01*
X65229900Y-168644400D01*
X65229900Y-169844400D01*
X65229900Y-169844400D01*
G37*
G36*
X135229900Y-169844400D02*
X132489900Y-169844400D01*
X132489900Y-168644400D01*
X135229900Y-168644400D01*
X135229900Y-169844400D01*
X135229900Y-169844400D01*
G37*
G36*
X205229900Y-169844400D02*
X202489900Y-169844400D01*
X202489900Y-168644400D01*
X205229900Y-168644400D01*
X205229900Y-169844400D01*
X205229900Y-169844400D01*
G37*
G36*
X65229900Y-167304400D02*
X62489900Y-167304400D01*
X62489900Y-166104400D01*
X65229900Y-166104400D01*
X65229900Y-167304400D01*
X65229900Y-167304400D01*
G37*
G36*
X135229900Y-167304400D02*
X132489900Y-167304400D01*
X132489900Y-166104400D01*
X135229900Y-166104400D01*
X135229900Y-167304400D01*
X135229900Y-167304400D01*
G37*
G36*
X205229900Y-167304400D02*
X202489900Y-167304400D01*
X202489900Y-166104400D01*
X205229900Y-166104400D01*
X205229900Y-167304400D01*
X205229900Y-167304400D01*
G37*
G36*
X92286323Y-155758290D02*
X96284970Y-155761955D01*
X88229455Y-163817470D01*
X88222125Y-155820350D01*
X88287850Y-155754625D01*
X88287851Y-155754625D01*
X92286323Y-155758290D01*
X92286323Y-155758290D01*
G37*
G36*
X22286323Y-155758290D02*
X26284970Y-155761955D01*
X18229455Y-163817470D01*
X18222125Y-155820350D01*
X18287850Y-155754625D01*
X18287851Y-155754625D01*
X22286323Y-155758290D01*
X22286323Y-155758290D01*
G37*
G36*
X162286323Y-155758290D02*
X166284970Y-155761955D01*
X158229455Y-163817470D01*
X158222125Y-155820350D01*
X158287850Y-155754625D01*
X158287851Y-155754625D01*
X162286323Y-155758290D01*
X162286323Y-155758290D01*
G37*
G36*
X112822241Y-155752516D02*
X112748939Y-163683663D01*
X112748939Y-163683664D01*
X104761036Y-155695761D01*
X104833008Y-155695096D01*
X112692184Y-155622459D01*
X112822241Y-155752516D01*
X112822241Y-155752516D01*
G37*
G36*
X182822241Y-155752516D02*
X182748939Y-163683663D01*
X182748939Y-163683664D01*
X174761036Y-155695761D01*
X174833008Y-155695096D01*
X182692184Y-155622459D01*
X182822241Y-155752516D01*
X182822241Y-155752516D01*
G37*
G36*
X42822241Y-155752516D02*
X42748939Y-163683663D01*
X42748939Y-163683664D01*
X34761036Y-155695761D01*
X34833008Y-155695096D01*
X42692184Y-155622459D01*
X42822241Y-155752516D01*
X42822241Y-155752516D01*
G37*
G36*
X65229900Y-147464400D02*
X62489900Y-147464400D01*
X62489900Y-146264400D01*
X65229900Y-146264400D01*
X65229900Y-147464400D01*
X65229900Y-147464400D01*
G37*
G36*
X205229900Y-147464400D02*
X202489900Y-147464400D01*
X202489900Y-146264400D01*
X205229900Y-146264400D01*
X205229900Y-147464400D01*
X205229900Y-147464400D01*
G37*
G36*
X135229900Y-147464400D02*
X132489900Y-147464400D01*
X132489900Y-146264400D01*
X135229900Y-146264400D01*
X135229900Y-147464400D01*
X135229900Y-147464400D01*
G37*
G36*
X65229900Y-144924400D02*
X62489900Y-144924400D01*
X62489900Y-143724400D01*
X65229900Y-143724400D01*
X65229900Y-144924400D01*
X65229900Y-144924400D01*
G37*
G36*
X135229900Y-144924400D02*
X132489900Y-144924400D01*
X132489900Y-143724400D01*
X135229900Y-143724400D01*
X135229900Y-144924400D01*
X135229900Y-144924400D01*
G37*
G36*
X205229900Y-144924400D02*
X202489900Y-144924400D01*
X202489900Y-143724400D01*
X205229900Y-143724400D01*
X205229900Y-144924400D01*
X205229900Y-144924400D01*
G37*
G36*
X135229900Y-142384400D02*
X132489900Y-142384400D01*
X132489900Y-141184400D01*
X135229900Y-141184400D01*
X135229900Y-142384400D01*
X135229900Y-142384400D01*
G37*
G36*
X205229900Y-142384400D02*
X202489900Y-142384400D01*
X202489900Y-141184400D01*
X205229900Y-141184400D01*
X205229900Y-142384400D01*
X205229900Y-142384400D01*
G37*
G36*
X65229900Y-142384400D02*
X62489900Y-142384400D01*
X62489900Y-141184400D01*
X65229900Y-141184400D01*
X65229900Y-142384400D01*
X65229900Y-142384400D01*
G37*
G36*
X65229900Y-139844400D02*
X62489900Y-139844400D01*
X62489900Y-138644400D01*
X65229900Y-138644400D01*
X65229900Y-139844400D01*
X65229900Y-139844400D01*
G37*
G36*
X135229900Y-139844400D02*
X132489900Y-139844400D01*
X132489900Y-138644400D01*
X135229900Y-138644400D01*
X135229900Y-139844400D01*
X135229900Y-139844400D01*
G37*
G36*
X205229900Y-139844400D02*
X202489900Y-139844400D01*
X202489900Y-138644400D01*
X205229900Y-138644400D01*
X205229900Y-139844400D01*
X205229900Y-139844400D01*
G37*
G36*
X65229900Y-137304400D02*
X62489900Y-137304400D01*
X62489900Y-136104400D01*
X65229900Y-136104400D01*
X65229900Y-137304400D01*
X65229900Y-137304400D01*
G37*
G36*
X135229900Y-137304400D02*
X132489900Y-137304400D01*
X132489900Y-136104400D01*
X135229900Y-136104400D01*
X135229900Y-137304400D01*
X135229900Y-137304400D01*
G37*
G36*
X205229900Y-137304400D02*
X202489900Y-137304400D01*
X202489900Y-136104400D01*
X205229900Y-136104400D01*
X205229900Y-137304400D01*
X205229900Y-137304400D01*
G37*
G36*
X92286402Y-125758290D02*
X96284970Y-125761955D01*
X88229455Y-133817470D01*
X88222125Y-125820350D01*
X88287850Y-125754625D01*
X88287851Y-125754625D01*
X92286402Y-125758290D01*
X92286402Y-125758290D01*
G37*
G36*
X22286402Y-125758290D02*
X26284970Y-125761955D01*
X18229455Y-133817470D01*
X18222125Y-125820350D01*
X18287850Y-125754625D01*
X18287851Y-125754625D01*
X22286402Y-125758290D01*
X22286402Y-125758290D01*
G37*
G36*
X162286402Y-125758290D02*
X166284970Y-125761955D01*
X158229455Y-133817470D01*
X158222125Y-125820350D01*
X158287850Y-125754625D01*
X158287851Y-125754625D01*
X162286402Y-125758290D01*
X162286402Y-125758290D01*
G37*
G36*
X182822241Y-125752516D02*
X182748939Y-133683663D01*
X182748939Y-133683664D01*
X174761036Y-125695761D01*
X174833008Y-125695096D01*
X182692184Y-125622459D01*
X182822241Y-125752516D01*
X182822241Y-125752516D01*
G37*
G36*
X112822241Y-125752516D02*
X112748939Y-133683663D01*
X112748939Y-133683664D01*
X104761036Y-125695761D01*
X104833008Y-125695096D01*
X112692184Y-125622459D01*
X112822241Y-125752516D01*
X112822241Y-125752516D01*
G37*
G36*
X42822241Y-125752516D02*
X42748939Y-133683663D01*
X42748939Y-133683664D01*
X34761036Y-125695761D01*
X34833008Y-125695096D01*
X42692184Y-125622459D01*
X42822241Y-125752516D01*
X42822241Y-125752516D01*
G37*
G36*
X205229900Y-117464400D02*
X202489900Y-117464400D01*
X202489900Y-116264400D01*
X205229900Y-116264400D01*
X205229900Y-117464400D01*
X205229900Y-117464400D01*
G37*
G36*
X65229900Y-117464400D02*
X62489900Y-117464400D01*
X62489900Y-116264400D01*
X65229900Y-116264400D01*
X65229900Y-117464400D01*
X65229900Y-117464400D01*
G37*
G36*
X135229900Y-117464400D02*
X132489900Y-117464400D01*
X132489900Y-116264400D01*
X135229900Y-116264400D01*
X135229900Y-117464400D01*
X135229900Y-117464400D01*
G37*
G36*
X65229900Y-114924400D02*
X62489900Y-114924400D01*
X62489900Y-113724400D01*
X65229900Y-113724400D01*
X65229900Y-114924400D01*
X65229900Y-114924400D01*
G37*
G36*
X205229900Y-114924400D02*
X202489900Y-114924400D01*
X202489900Y-113724400D01*
X205229900Y-113724400D01*
X205229900Y-114924400D01*
X205229900Y-114924400D01*
G37*
G36*
X135229900Y-114924400D02*
X132489900Y-114924400D01*
X132489900Y-113724400D01*
X135229900Y-113724400D01*
X135229900Y-114924400D01*
X135229900Y-114924400D01*
G37*
G36*
X135229900Y-112384400D02*
X132489900Y-112384400D01*
X132489900Y-111184400D01*
X135229900Y-111184400D01*
X135229900Y-112384400D01*
X135229900Y-112384400D01*
G37*
G36*
X65229900Y-112384400D02*
X62489900Y-112384400D01*
X62489900Y-111184400D01*
X65229900Y-111184400D01*
X65229900Y-112384400D01*
X65229900Y-112384400D01*
G37*
G36*
X205229900Y-112384400D02*
X202489900Y-112384400D01*
X202489900Y-111184400D01*
X205229900Y-111184400D01*
X205229900Y-112384400D01*
X205229900Y-112384400D01*
G37*
G36*
X65229900Y-109844400D02*
X62489900Y-109844400D01*
X62489900Y-108644400D01*
X65229900Y-108644400D01*
X65229900Y-109844400D01*
X65229900Y-109844400D01*
G37*
G36*
X135229900Y-109844400D02*
X132489900Y-109844400D01*
X132489900Y-108644400D01*
X135229900Y-108644400D01*
X135229900Y-109844400D01*
X135229900Y-109844400D01*
G37*
G36*
X205229900Y-109844400D02*
X202489900Y-109844400D01*
X202489900Y-108644400D01*
X205229900Y-108644400D01*
X205229900Y-109844400D01*
X205229900Y-109844400D01*
G37*
G36*
X205229900Y-107304400D02*
X202489900Y-107304400D01*
X202489900Y-106104400D01*
X205229900Y-106104400D01*
X205229900Y-107304400D01*
X205229900Y-107304400D01*
G37*
G36*
X135229900Y-107304400D02*
X132489900Y-107304400D01*
X132489900Y-106104400D01*
X135229900Y-106104400D01*
X135229900Y-107304400D01*
X135229900Y-107304400D01*
G37*
G36*
X65229900Y-107304400D02*
X62489900Y-107304400D01*
X62489900Y-106104400D01*
X65229900Y-106104400D01*
X65229900Y-107304400D01*
X65229900Y-107304400D01*
G37*
G36*
X162286359Y-95758290D02*
X166284970Y-95761955D01*
X158229455Y-103817470D01*
X158222125Y-95820350D01*
X158287850Y-95754625D01*
X158287851Y-95754625D01*
X162286359Y-95758290D01*
X162286359Y-95758290D01*
G37*
G36*
X92286359Y-95758290D02*
X96284970Y-95761955D01*
X88229455Y-103817470D01*
X88222125Y-95820350D01*
X88287850Y-95754625D01*
X88287851Y-95754625D01*
X92286359Y-95758290D01*
X92286359Y-95758290D01*
G37*
G36*
X22286359Y-95758290D02*
X26284970Y-95761955D01*
X18229455Y-103817470D01*
X18222125Y-95820350D01*
X18287850Y-95754625D01*
X18287851Y-95754625D01*
X22286359Y-95758290D01*
X22286359Y-95758290D01*
G37*
G36*
X112822241Y-95752516D02*
X112748939Y-103683663D01*
X112748939Y-103683664D01*
X104761036Y-95695761D01*
X104833008Y-95695096D01*
X112692184Y-95622459D01*
X112822241Y-95752516D01*
X112822241Y-95752516D01*
G37*
G36*
X42822241Y-95752516D02*
X42748939Y-103683663D01*
X42748939Y-103683664D01*
X34761036Y-95695761D01*
X34833008Y-95695096D01*
X42692184Y-95622459D01*
X42822241Y-95752516D01*
X42822241Y-95752516D01*
G37*
G36*
X182822241Y-95752516D02*
X182748939Y-103683663D01*
X182748939Y-103683664D01*
X174761036Y-95695761D01*
X174833008Y-95695096D01*
X182692184Y-95622459D01*
X182822241Y-95752516D01*
X182822241Y-95752516D01*
G37*
G36*
X135229900Y-87464400D02*
X132489900Y-87464400D01*
X132489900Y-86264400D01*
X135229900Y-86264400D01*
X135229900Y-87464400D01*
X135229900Y-87464400D01*
G37*
G36*
X205229900Y-87464400D02*
X202489900Y-87464400D01*
X202489900Y-86264400D01*
X205229900Y-86264400D01*
X205229900Y-87464400D01*
X205229900Y-87464400D01*
G37*
G36*
X65229900Y-87464400D02*
X62489900Y-87464400D01*
X62489900Y-86264400D01*
X65229900Y-86264400D01*
X65229900Y-87464400D01*
X65229900Y-87464400D01*
G37*
G36*
X65229900Y-84924400D02*
X62489900Y-84924400D01*
X62489900Y-83724400D01*
X65229900Y-83724400D01*
X65229900Y-84924400D01*
X65229900Y-84924400D01*
G37*
G36*
X205229900Y-84924400D02*
X202489900Y-84924400D01*
X202489900Y-83724400D01*
X205229900Y-83724400D01*
X205229900Y-84924400D01*
X205229900Y-84924400D01*
G37*
G36*
X135229900Y-84924400D02*
X132489900Y-84924400D01*
X132489900Y-83724400D01*
X135229900Y-83724400D01*
X135229900Y-84924400D01*
X135229900Y-84924400D01*
G37*
G36*
X205229900Y-82384400D02*
X202489900Y-82384400D01*
X202489900Y-81184400D01*
X205229900Y-81184400D01*
X205229900Y-82384400D01*
X205229900Y-82384400D01*
G37*
G36*
X135229900Y-82384400D02*
X132489900Y-82384400D01*
X132489900Y-81184400D01*
X135229900Y-81184400D01*
X135229900Y-82384400D01*
X135229900Y-82384400D01*
G37*
G36*
X65229900Y-82384400D02*
X62489900Y-82384400D01*
X62489900Y-81184400D01*
X65229900Y-81184400D01*
X65229900Y-82384400D01*
X65229900Y-82384400D01*
G37*
G36*
X65229900Y-79844400D02*
X62489900Y-79844400D01*
X62489900Y-78644400D01*
X65229900Y-78644400D01*
X65229900Y-79844400D01*
X65229900Y-79844400D01*
G37*
G36*
X205229900Y-79844400D02*
X202489900Y-79844400D01*
X202489900Y-78644400D01*
X205229900Y-78644400D01*
X205229900Y-79844400D01*
X205229900Y-79844400D01*
G37*
G36*
X135229900Y-79844400D02*
X132489900Y-79844400D01*
X132489900Y-78644400D01*
X135229900Y-78644400D01*
X135229900Y-79844400D01*
X135229900Y-79844400D01*
G37*
G36*
X65229900Y-77304400D02*
X62489900Y-77304400D01*
X62489900Y-76104400D01*
X65229900Y-76104400D01*
X65229900Y-77304400D01*
X65229900Y-77304400D01*
G37*
G36*
X135229900Y-77304400D02*
X132489900Y-77304400D01*
X132489900Y-76104400D01*
X135229900Y-76104400D01*
X135229900Y-77304400D01*
X135229900Y-77304400D01*
G37*
G36*
X205229900Y-77304400D02*
X202489900Y-77304400D01*
X202489900Y-76104400D01*
X205229900Y-76104400D01*
X205229900Y-77304400D01*
X205229900Y-77304400D01*
G37*
G36*
X22286438Y-65758290D02*
X26284970Y-65761955D01*
X18229455Y-73817470D01*
X18222125Y-65820350D01*
X18287850Y-65754625D01*
X18287851Y-65754625D01*
X22286438Y-65758290D01*
X22286438Y-65758290D01*
G37*
G36*
X92286438Y-65758290D02*
X96284970Y-65761955D01*
X88229455Y-73817470D01*
X88222125Y-65820350D01*
X88287850Y-65754625D01*
X88287851Y-65754625D01*
X92286438Y-65758290D01*
X92286438Y-65758290D01*
G37*
G36*
X162286438Y-65758290D02*
X166284970Y-65761955D01*
X158229455Y-73817470D01*
X158222125Y-65820350D01*
X158287850Y-65754625D01*
X158287851Y-65754625D01*
X162286438Y-65758290D01*
X162286438Y-65758290D01*
G37*
G36*
X182822241Y-65752516D02*
X182748939Y-73683663D01*
X182748939Y-73683664D01*
X174761036Y-65695761D01*
X174833008Y-65695096D01*
X182692184Y-65622459D01*
X182822241Y-65752516D01*
X182822241Y-65752516D01*
G37*
G36*
X112822241Y-65752516D02*
X112748939Y-73683663D01*
X112748939Y-73683664D01*
X104761036Y-65695761D01*
X104833008Y-65695096D01*
X112692184Y-65622459D01*
X112822241Y-65752516D01*
X112822241Y-65752516D01*
G37*
G36*
X42822241Y-65752516D02*
X42748939Y-73683663D01*
X42748939Y-73683664D01*
X34761036Y-65695761D01*
X34833008Y-65695096D01*
X42692184Y-65622459D01*
X42822241Y-65752516D01*
X42822241Y-65752516D01*
G37*
G36*
X205229900Y-57464400D02*
X202489900Y-57464400D01*
X202489900Y-56264400D01*
X205229900Y-56264400D01*
X205229900Y-57464400D01*
X205229900Y-57464400D01*
G37*
G36*
X65229900Y-57464400D02*
X62489900Y-57464400D01*
X62489900Y-56264400D01*
X65229900Y-56264400D01*
X65229900Y-57464400D01*
X65229900Y-57464400D01*
G37*
G36*
X135229900Y-57464400D02*
X132489900Y-57464400D01*
X132489900Y-56264400D01*
X135229900Y-56264400D01*
X135229900Y-57464400D01*
X135229900Y-57464400D01*
G37*
G36*
X135229900Y-54924400D02*
X132489900Y-54924400D01*
X132489900Y-53724400D01*
X135229900Y-53724400D01*
X135229900Y-54924400D01*
X135229900Y-54924400D01*
G37*
G36*
X205229900Y-54924400D02*
X202489900Y-54924400D01*
X202489900Y-53724400D01*
X205229900Y-53724400D01*
X205229900Y-54924400D01*
X205229900Y-54924400D01*
G37*
G36*
X65229900Y-54924400D02*
X62489900Y-54924400D01*
X62489900Y-53724400D01*
X65229900Y-53724400D01*
X65229900Y-54924400D01*
X65229900Y-54924400D01*
G37*
G36*
X65229900Y-52384400D02*
X62489900Y-52384400D01*
X62489900Y-51184400D01*
X65229900Y-51184400D01*
X65229900Y-52384400D01*
X65229900Y-52384400D01*
G37*
G36*
X135229900Y-52384400D02*
X132489900Y-52384400D01*
X132489900Y-51184400D01*
X135229900Y-51184400D01*
X135229900Y-52384400D01*
X135229900Y-52384400D01*
G37*
G36*
X205229900Y-52384400D02*
X202489900Y-52384400D01*
X202489900Y-51184400D01*
X205229900Y-51184400D01*
X205229900Y-52384400D01*
X205229900Y-52384400D01*
G37*
G36*
X65229900Y-49844400D02*
X62489900Y-49844400D01*
X62489900Y-48644400D01*
X65229900Y-48644400D01*
X65229900Y-49844400D01*
X65229900Y-49844400D01*
G37*
G36*
X205229900Y-49844400D02*
X202489900Y-49844400D01*
X202489900Y-48644400D01*
X205229900Y-48644400D01*
X205229900Y-49844400D01*
X205229900Y-49844400D01*
G37*
G36*
X135229900Y-49844400D02*
X132489900Y-49844400D01*
X132489900Y-48644400D01*
X135229900Y-48644400D01*
X135229900Y-49844400D01*
X135229900Y-49844400D01*
G37*
G36*
X205229900Y-47304400D02*
X202489900Y-47304400D01*
X202489900Y-46104400D01*
X205229900Y-46104400D01*
X205229900Y-47304400D01*
X205229900Y-47304400D01*
G37*
G36*
X135229900Y-47304400D02*
X132489900Y-47304400D01*
X132489900Y-46104400D01*
X135229900Y-46104400D01*
X135229900Y-47304400D01*
X135229900Y-47304400D01*
G37*
G36*
X65229900Y-47304400D02*
X62489900Y-47304400D01*
X62489900Y-46104400D01*
X65229900Y-46104400D01*
X65229900Y-47304400D01*
X65229900Y-47304400D01*
G37*
G36*
X92286426Y-35758290D02*
X96284970Y-35761955D01*
X88229455Y-43817470D01*
X88222125Y-35820350D01*
X88287850Y-35754625D01*
X88287851Y-35754625D01*
X92286426Y-35758290D01*
X92286426Y-35758290D01*
G37*
G36*
X162286426Y-35758290D02*
X166284970Y-35761955D01*
X158229455Y-43817470D01*
X158222125Y-35820350D01*
X158287850Y-35754625D01*
X158287851Y-35754625D01*
X162286426Y-35758290D01*
X162286426Y-35758290D01*
G37*
G36*
X22286426Y-35758290D02*
X26284970Y-35761955D01*
X18229455Y-43817470D01*
X18222125Y-35820350D01*
X18287850Y-35754625D01*
X18287851Y-35754625D01*
X22286426Y-35758290D01*
X22286426Y-35758290D01*
G37*
G36*
X42822241Y-35752516D02*
X42748939Y-43683663D01*
X42748939Y-43683664D01*
X34761036Y-35695761D01*
X34833008Y-35695096D01*
X42692184Y-35622459D01*
X42822241Y-35752516D01*
X42822241Y-35752516D01*
G37*
G36*
X112822241Y-35752516D02*
X112748939Y-43683663D01*
X112748939Y-43683664D01*
X104761036Y-35695761D01*
X104833008Y-35695096D01*
X112692184Y-35622459D01*
X112822241Y-35752516D01*
X112822241Y-35752516D01*
G37*
G36*
X182822241Y-35752516D02*
X182748939Y-43683663D01*
X182748939Y-43683664D01*
X174761036Y-35695761D01*
X174833008Y-35695096D01*
X182692184Y-35622459D01*
X182822241Y-35752516D01*
X182822241Y-35752516D01*
G37*
G36*
X65229900Y-27464400D02*
X62489900Y-27464400D01*
X62489900Y-26264400D01*
X65229900Y-26264400D01*
X65229900Y-27464400D01*
X65229900Y-27464400D01*
G37*
G36*
X135229900Y-27464400D02*
X132489900Y-27464400D01*
X132489900Y-26264400D01*
X135229900Y-26264400D01*
X135229900Y-27464400D01*
X135229900Y-27464400D01*
G37*
G36*
X205229900Y-27464400D02*
X202489900Y-27464400D01*
X202489900Y-26264400D01*
X205229900Y-26264400D01*
X205229900Y-27464400D01*
X205229900Y-27464400D01*
G37*
G36*
X65229900Y-24924400D02*
X62489900Y-24924400D01*
X62489900Y-23724400D01*
X65229900Y-23724400D01*
X65229900Y-24924400D01*
X65229900Y-24924400D01*
G37*
G36*
X135229900Y-24924400D02*
X132489900Y-24924400D01*
X132489900Y-23724400D01*
X135229900Y-23724400D01*
X135229900Y-24924400D01*
X135229900Y-24924400D01*
G37*
G36*
X205229900Y-24924400D02*
X202489900Y-24924400D01*
X202489900Y-23724400D01*
X205229900Y-23724400D01*
X205229900Y-24924400D01*
X205229900Y-24924400D01*
G37*
G36*
X65229900Y-22384400D02*
X62489900Y-22384400D01*
X62489900Y-21184400D01*
X65229900Y-21184400D01*
X65229900Y-22384400D01*
X65229900Y-22384400D01*
G37*
G36*
X205229900Y-22384400D02*
X202489900Y-22384400D01*
X202489900Y-21184400D01*
X205229900Y-21184400D01*
X205229900Y-22384400D01*
X205229900Y-22384400D01*
G37*
G36*
X135229900Y-22384400D02*
X132489900Y-22384400D01*
X132489900Y-21184400D01*
X135229900Y-21184400D01*
X135229900Y-22384400D01*
X135229900Y-22384400D01*
G37*
G36*
X205229900Y-19844400D02*
X202489900Y-19844400D01*
X202489900Y-18644400D01*
X205229900Y-18644400D01*
X205229900Y-19844400D01*
X205229900Y-19844400D01*
G37*
G36*
X135229900Y-19844400D02*
X132489900Y-19844400D01*
X132489900Y-18644400D01*
X135229900Y-18644400D01*
X135229900Y-19844400D01*
X135229900Y-19844400D01*
G37*
G36*
X65229900Y-19844400D02*
X62489900Y-19844400D01*
X62489900Y-18644400D01*
X65229900Y-18644400D01*
X65229900Y-19844400D01*
X65229900Y-19844400D01*
G37*
G36*
X135229900Y-17304400D02*
X132489900Y-17304400D01*
X132489900Y-16104400D01*
X135229900Y-16104400D01*
X135229900Y-17304400D01*
X135229900Y-17304400D01*
G37*
G36*
X205229900Y-17304400D02*
X202489900Y-17304400D01*
X202489900Y-16104400D01*
X205229900Y-16104400D01*
X205229900Y-17304400D01*
X205229900Y-17304400D01*
G37*
G36*
X65229900Y-17304400D02*
X62489900Y-17304400D01*
X62489900Y-16104400D01*
X65229900Y-16104400D01*
X65229900Y-17304400D01*
X65229900Y-17304400D01*
G37*
G36*
X22286410Y-5758290D02*
X26284970Y-5761955D01*
X18229455Y-13817470D01*
X18222125Y-5820350D01*
X18287850Y-5754625D01*
X18287851Y-5754625D01*
X22286410Y-5758290D01*
X22286410Y-5758290D01*
G37*
G36*
X92286410Y-5758290D02*
X96284970Y-5761955D01*
X88229455Y-13817470D01*
X88222125Y-5820350D01*
X88287850Y-5754625D01*
X88287851Y-5754625D01*
X92286410Y-5758290D01*
X92286410Y-5758290D01*
G37*
G36*
X162286410Y-5758290D02*
X166284970Y-5761955D01*
X158229455Y-13817470D01*
X158222125Y-5820350D01*
X158287850Y-5754625D01*
X158287851Y-5754625D01*
X162286410Y-5758290D01*
X162286410Y-5758290D01*
G37*
G36*
X42822241Y-5752516D02*
X42748939Y-13683663D01*
X42748939Y-13683664D01*
X34761036Y-5695761D01*
X34833008Y-5695096D01*
X42692184Y-5622459D01*
X42822241Y-5752516D01*
X42822241Y-5752516D01*
G37*
G36*
X112822241Y-5752516D02*
X112748939Y-13683663D01*
X112748939Y-13683664D01*
X104761036Y-5695761D01*
X104833008Y-5695096D01*
X112692184Y-5622459D01*
X112822241Y-5752516D01*
X112822241Y-5752516D01*
G37*
G36*
X182822241Y-5752516D02*
X182748939Y-13683663D01*
X182748939Y-13683664D01*
X174761036Y-5695761D01*
X174833008Y-5695096D01*
X182692184Y-5622459D01*
X182822241Y-5752516D01*
X182822241Y-5752516D01*
G37*
M02*
